<svg xmlns="http://www.w3.org/2000/svg" viewBox="0 0 500 500"><g id="freepik--background-complete--inject-167"><path d="M431.27,260a29.61,29.61,0,0,0-2.29-9.12,39.43,39.43,0,0,0-5-8.09c-7.82-10.06-20.19-15.8-32.65-17.37a46.53,46.53,0,0,0-17,.85,28.73,28.73,0,0,0-7.75,3.16c-2.24,1.31-4.8,3-6.16,5.24a.43.43,0,0,0,.58.59c1.3-.68,2.47-1.59,3.73-2.36a29.68,29.68,0,0,1,4-2,42.78,42.78,0,0,1,8.32-2.46,49.23,49.23,0,0,1,33.8,6.34,44.85,44.85,0,0,1,12.42,11.11,43.41,43.41,0,0,1,4.25,6.71,63.72,63.72,0,0,1,3.44,7.46C431,260.22,431.29,260.22,431.27,260Z" style="fill:#ebebeb"></path><path d="M426.77,241.66a18.41,18.41,0,0,0-3.08-5.26,38.36,38.36,0,0,0-4.53-4.21,59.24,59.24,0,0,0-20-10.82,35,35,0,0,0-10.89-1.6,51,51,0,0,0-5.24.44,17.6,17.6,0,0,0-5.09,1.26c-.21.09-.11.42.1.42,2,0,3.93-.36,5.91-.35s3.78.28,5.68.48c22.19,2.26,35.32,18.84,36.7,20A.27.27,0,0,0,426.77,241.66Z" style="fill:#ebebeb"></path><path d="M337.76,295.87c3.87,3.74,9.54,2.67,13.68,0,4.31-2.78,7.67-6.88,10.48-11.11,2.56-3.87,4.71-8,6.94-12.08s4.36-8.35,7.42-11.88a16.76,16.76,0,0,1,11.26-5.91,20,20,0,0,1,13.28,3.88,19.57,19.57,0,0,1,5.16,5.3,18.2,18.2,0,0,1,2.44,6.57c.95,5.06.91,10.23,1.09,15.34.13,4.24,1.35,8.26,4.75,11,2.89,2.34,6.76,3.63,10.41,2.44a.23.23,0,0,0-.06-.45,13.91,13.91,0,0,1-11-5.49,12.46,12.46,0,0,1-2.07-6.6c-.19-2.82-.18-5.65-.38-8.47-.33-4.68-.58-9.77-2.76-14a23,23,0,0,0-10-9.61,21,21,0,0,0-13.26-2,19,19,0,0,0-11.35,7.08c-5.77,7.17-8.91,16-13.78,23.73a37.57,37.57,0,0,1-8.78,10.09c-3.61,2.71-8.84,4.23-12.9,1.52C337.89,294.91,337.4,295.53,337.76,295.87Z" style="fill:#ebebeb"></path><path d="M339.54,281.7c2,.67,4.16-.5,5.44-2a34.55,34.55,0,0,0,4.46-7.09,125.74,125.74,0,0,1,8.49-15.16C363.14,249.9,370.2,243,379.06,240a31.76,31.76,0,0,1,36.43,11.73A36.79,36.79,0,0,1,421,264.37a93.64,93.64,0,0,1,1.9,14.25c.16,1.92.46,4.27,2,5.61a3.34,3.34,0,0,0,4.3.21c.12-.09,0-.25-.14-.19a2.77,2.77,0,0,1-3.23-.92,5.36,5.36,0,0,1-1.13-3.49c-.11-2.57-.1-5.13-.3-7.71a50.62,50.62,0,0,0-3.39-15.21,34.5,34.5,0,0,0-45.32-18.5c-8.69,3.69-15.46,10.69-20.56,18.47a122.34,122.34,0,0,0-7.25,13.31,65.23,65.23,0,0,1-3.58,6.77,23.28,23.28,0,0,1-2,2.72,2.79,2.79,0,0,1-2.56,1.18A.43.43,0,0,0,339.54,281.7Z" style="fill:#ebebeb"></path><path d="M338.51,300a.39.39,0,0,0,.23.49,13.83,13.83,0,0,0,2.13.76,9.65,9.65,0,0,0,1,.2c3.95.57,8.45-.85,13.38-4.22A45.63,45.63,0,0,0,366,286.81a64.1,64.1,0,0,0,6.19-11.16c.51-1.09,1-2.18,1.56-3.26,1.68-3.45,4.46-8.31,9.08-10.86a11.89,11.89,0,0,1,10.26-.55,20.17,20.17,0,0,1,11.12,11.55,18.09,18.09,0,0,1-.17,12.78,25.19,25.19,0,0,1-8.84,10.94,39.32,39.32,0,0,1-13.49,6c-2.06.53-4.77,1.2-7.52,1.64l-1.57.25c-2,.32-4.05.64-6.05,1.08a.56.56,0,0,0,.13,1.11c1.34,0,2.68-.13,3.93-.24,9.05-.78,20.49-2.66,28.76-10.36A24.94,24.94,0,0,0,407,283.25a20.32,20.32,0,0,0-1.51-13.18,22.33,22.33,0,0,0-12.3-11.45,14,14,0,0,0-11.11.61c-3.78,1.9-7,5.48-9.81,10.94-.77,1.49-1.49,3-2.2,4.5A65.12,65.12,0,0,1,364.31,285a43.63,43.63,0,0,1-11.19,10.75c-3.55,2.35-8.87,4.93-14.08,3.91A.46.46,0,0,0,338.51,300Z" style="fill:#ebebeb"></path><path d="M339.34,287a7.37,7.37,0,0,0,6.65-.35c2.26-1.17,3.77-3.55,5-5.68,2.91-5,5.42-10.19,8.32-15.17,4.51-7.78,10.37-15.46,18.92-19a28.89,28.89,0,0,1,23.89.93,25.71,25.71,0,0,1,10,9,36.27,36.27,0,0,1,4.55,12.07c.43,2.14.75,4.31,1,6.49a68.32,68.32,0,0,0,.79,6.83c.77,3.79,3.61,8.71,8.17,7.81a.36.36,0,0,0,0-.69,8.28,8.28,0,0,1-5.24-4.59c-1.08-2.41-1.15-5.13-1.35-7.72a57.71,57.71,0,0,0-2.66-14.21,31.22,31.22,0,0,0-6.32-11,29.35,29.35,0,0,0-11.22-7.5,31.26,31.26,0,0,0-24.23,1c-8.38,4-14.22,11.76-18.74,19.64-2.53,4.42-4.73,9-7.13,13.5-1.84,3.42-5,9.18-9.83,7.37C339.16,285.43,338.65,286.63,339.34,287Z" style="fill:#ebebeb"></path><path d="M338.26,290.36a7.06,7.06,0,0,0,1.77,2,7.59,7.59,0,0,0,5.67,1,11.25,11.25,0,0,0,5.68-3.34,38.47,38.47,0,0,0,4.41-5.75c1.5-2.26,2.89-4.61,4.25-7,2.74-4.72,5.37-9.52,8.27-14.15,2.57-4.09,5.53-7.91,9.73-10.45a23.05,23.05,0,0,1,24.76.5,22.4,22.4,0,0,1,8.37,10.25c1.83,4.57,2.14,9.54,2.41,14.4.23,4.33.2,8.93,2.15,12.91,1.63,3.31,5.85,6.51,9.52,4.11a.18.18,0,0,0-.14-.33c-2.41.67-4.85-.59-6.39-2.44a12.94,12.94,0,0,1-2.59-6.25c-.9-5.06-.62-10.28-1.34-15.38a28,28,0,0,0-4.74-12.61,26.43,26.43,0,0,0-9.66-8.31,25.27,25.27,0,0,0-24.82,1.67c-4.05,2.73-7,6.6-9.59,10.7-2.82,4.48-5.31,9.17-8,13.76q-2,3.53-4.23,7a40,40,0,0,1-4,5.66,9.91,9.91,0,0,1-5.39,3.27,5.65,5.65,0,0,1-5.44-1.73C338.62,289.49,338,290,338.26,290.36Z" style="fill:#ebebeb"></path><path d="M429,281.6a31.49,31.49,0,0,0,.66-3.46,43.9,43.9,0,0,0-6.57-27.68,41.06,41.06,0,0,0-20.55-17,44,44,0,0,0-26.2-1.09,43.34,43.34,0,0,0-22,14.14,44.49,44.49,0,0,0-10.48,23.84c0,.19.27.21.31.05a54,54,0,0,1,14-24.51A43.29,43.29,0,0,1,380,234.34,40.72,40.72,0,0,1,404.28,237a39.57,39.57,0,0,1,18.27,17.48,46.13,46.13,0,0,1,4.51,12.95,92.93,92.93,0,0,1,1.23,14A.36.36,0,0,0,429,281.6Z" style="fill:#ebebeb"></path><path d="M409.15,311c1.26-1.25,3.11.43,4.07,1.25,1.45,1.24,3,2.77,5,2.85a.13.13,0,0,1,0,.26,4.83,4.83,0,0,1-4.09-.76,20.2,20.2,0,0,1-1.84-1.35A8.46,8.46,0,0,0,410.5,312a1.27,1.27,0,0,0-.38-.11c-.14,0-.1,0-.12,0-.17.21-.07.73-.05,1a9,9,0,0,0,.35,1.86,13.19,13.19,0,0,0,1.71,3.52,18.22,18.22,0,0,0,1.35,1.82c.49.58,1.11,1.08,1.57,1.68a.2.2,0,0,1-.25.31,8.08,8.08,0,0,1-1.73-1.3,14,14,0,0,1-1.58-1.6,12.24,12.24,0,0,1-2.14-3.87,11.26,11.26,0,0,1-.48-2.16A2.51,2.51,0,0,1,409.15,311Z" style="fill:#ebebeb"></path><path d="M411.58,314.32a13.5,13.5,0,0,1,2.57,2.44c.33.4.68.8,1,1.18.18.18.37.35.56.51s.41.29.61.44a.21.21,0,0,1-.11.39,3.83,3.83,0,0,1-2.76-1.62,13.28,13.28,0,0,1-2.15-3.11C411.27,314.4,411.42,314.21,411.58,314.32Z" style="fill:#ebebeb"></path><path d="M341.57,303.9s0,.05,0,.07a.36.36,0,0,0,.22.35,4.17,4.17,0,0,0,.77.28,9.9,9.9,0,0,0,2.85.19,19.19,19.19,0,0,0,3.92-.56,27.1,27.1,0,0,0,7.16-3c7.54-4.36,13.64-11.49,18.14-21.19.3-.64.59-1.29.89-1.94,1.57-3.51,3.2-7.14,5.91-9.93a12.69,12.69,0,0,1,5.06-3.22,12.13,12.13,0,0,1,6-.1.5.5,0,0,0,.54-.28.48.48,0,0,0-.16-.58c-2.08-1.59-5.15-1.09-6.37-.8a14.56,14.56,0,0,0-5.87,3.06c-3.3,2.78-5.13,6.8-6.9,10.69l-.44,1A59.34,59.34,0,0,1,366,290.3a39.34,39.34,0,0,1-10.74,9.33,27.44,27.44,0,0,1-6.39,2.85,25.62,25.62,0,0,1-3.49.7c-.39.05-.79.08-1.2.11a11.58,11.58,0,0,0-2.33.33A.42.42,0,0,0,341.57,303.9Z" style="fill:#ebebeb"></path><path d="M364.82,303.28a.37.37,0,0,0,.11.38.31.31,0,0,0,.16.1.4.4,0,0,0,.37-.1,6.84,6.84,0,0,1,3.38-1.53c1.14-.29,2.31-.5,3.45-.7l.52-.1c3.13-.56,5.68-1.11,8.05-1.72,10.5-2.72,17.41-7.56,20.52-14.38a16.16,16.16,0,0,0,.89-11.64,13.61,13.61,0,0,0-7-8.52.46.46,0,0,0-.59.16.41.41,0,0,0,.06.55A18.42,18.42,0,0,1,400.69,276c.94,5.53-1.66,13.76-12.06,18.79a55.67,55.67,0,0,1-12.06,3.81c-2.09.47-4.44,1-6.73,1.69a16.13,16.13,0,0,0-2.75,1,8,8,0,0,0-2.18,1.77A.29.29,0,0,0,364.82,303.28Z" style="fill:#ebebeb"></path><path d="M338.38,305.15a9.45,9.45,0,0,0,4,2.14,16.76,16.76,0,0,0,8.39-.36,38.9,38.9,0,0,0,11.27-5.52c.33-.23.65-.47,1-.71l.29-.21a.66.66,0,0,0,.19-.09c2.69-1.8,6-2.44,9.2-3.06,1.12-.21,2.28-.44,3.37-.71,5.42-1.33,9.24-2.95,12.41-5.28a17.71,17.71,0,0,0,6.73-9.13c.95-3.22,1.08-8-1.67-10.7s-7.05-2-9.91.07c-3.32,2.45-5.55,6.41-7.34,9.58l-.63,1.12a65.33,65.33,0,0,1-5.88,9.22,42.19,42.19,0,0,1-18.38,13.12c-4.69,1.68-8.94,1.64-12.61-.1l-.07,0a.42.42,0,0,0-.43.16A.37.37,0,0,0,338.38,305.15ZM368,296.52c.82-.79,1.55-1.56,2.22-2.31a53.25,53.25,0,0,0,6.51-9.51l.9-1.64a38.1,38.1,0,0,1,5.8-8.62,8.47,8.47,0,0,1,4.52-2.65,5.78,5.78,0,0,1,2.37.07,4.08,4.08,0,0,1,2.32,1.53c2.21,3,1.44,7.59-.31,10.8a18.56,18.56,0,0,1-8,7.33,50.12,50.12,0,0,1-11.77,3.82l-.36.07C370.81,295.74,369.37,296.07,368,296.52Z" style="fill:#ebebeb"></path><path d="M374.94,291.73a.42.42,0,0,0,.07.46.39.39,0,0,0,.21.13.38.38,0,0,0,.32-.06c.24-.16,1.88-.9,2.66-1.24l.76-.32c.54-.22,1.09-.44,1.62-.71a34.67,34.67,0,0,0,4.56-2.68c2.81-2,4.38-4.22,4.65-6.64a3.22,3.22,0,0,0-1.18-3.16,3.27,3.27,0,0,0-3.83.43,12.88,12.88,0,0,0-2.56,3.17c-.61,1-1.19,2-1.75,2.92l-.46.77a57.74,57.74,0,0,1-4.91,6.54A.4.4,0,0,0,374.94,291.73Zm5.74-5.25a53.7,53.7,0,0,1,4.21-5.8l.07-.08c.41-.47,1.37-1.57,2.09-1.58l.15,0a.68.68,0,0,1,.36.25c.52.59.18,1.83-.3,2.8-1.12,2.23-3.48,3.75-5.37,5l-1.47.95-1.51,1C379.61,288.09,380.21,287.21,380.68,286.48Z" style="fill:#ebebeb"></path><path d="M372.64,332.86a98.09,98.09,0,0,0-5.91,8.53.09.09,0,0,0,.15.11c2.24-2.24,4.21-4.7,6.36-7,1.4-1.51,4.12-5.12,6.59-4,1,.48,1.58,1.85,2,2.82a39.68,39.68,0,0,0,1.9,3.94c1.1,1.89,3.35,4.53,5.8,4.41.1,0,.2-.16.1-.23-.55-.46-1.17-.78-1.71-1.27a9.56,9.56,0,0,1-1.57-1.73,21.38,21.38,0,0,1-2.14-4.21c-.93-2.33-2-5.34-4.9-5.58C376.55,328.44,374.18,330.85,372.64,332.86Z" style="fill:#ebebeb"></path><path d="M337.8,307.42c2.08,4.25,7.25,4.59,11.28,3.33a40.36,40.36,0,0,0,6.73-3.05,45.26,45.26,0,0,1,7.12-3.16.11.11,0,0,0,0-.21c-4.63-.17-8.61,2.89-12.74,4.53-3.87,1.55-9.13,1.89-12.13-1.61C337.92,307.12,337.74,307.28,337.8,307.42Z" style="fill:#ebebeb"></path><path d="M409.69,328.84c.28.06.48-.35.21-.48-4.33-2-7.25-6.14-8.64-10.62a29,29,0,0,1-1-12.65,24.41,24.41,0,0,1,1.67-6,23.48,23.48,0,0,1,1.52-2.95,7.15,7.15,0,0,1,2-2.38,1.83,1.83,0,0,1,2.67.38,17.88,17.88,0,0,1,.89,2.38,12.47,12.47,0,0,0,3.32,4.61,11.55,11.55,0,0,0,5,2.58,10.8,10.8,0,0,0,6-.36c.13,0,.12-.27,0-.26a12.74,12.74,0,0,1-12.54-6.61c-.81-1.61-1-3.88-3-4.44s-3.8.8-4.95,2.35a23.82,23.82,0,0,0-4.23,12.8C398.07,315.14,400.69,326.63,409.69,328.84Z" style="fill:#ebebeb"></path><path d="M373.45,339.67a7.12,7.12,0,0,0-.87,2.45.14.14,0,0,0,.23.1,7.87,7.87,0,0,0,1.35-1.9c.43-.71.85-1.41,1.32-2.1a15.48,15.48,0,0,1,1.57-1.94c.2-.22.45-.6.72-.72l.07,0a.88.88,0,0,1,.12.17,4.85,4.85,0,0,1,.29.49,41.73,41.73,0,0,0,2.21,4.12c.72,1,2,2.18,3.28,2.15.09,0,.15-.12.08-.18a9.6,9.6,0,0,1-1.69-1.74A14.52,14.52,0,0,1,381,338.4c-.36-.79-.67-1.62-1.09-2.39s-.87-1.76-1.74-1.93-1.45.53-1.93,1.09a17,17,0,0,0-1.52,2.15C374.27,338.09,373.84,338.86,373.45,339.67Z" style="fill:#ebebeb"></path><path d="M412.75,324.46c.16.1.29-.1.19-.24a25.33,25.33,0,0,1-2.43-3.61c-.66-1.3-1.21-2.65-1.74-4a39.74,39.74,0,0,1-2.47-7.48,8.8,8.8,0,0,1-.09-3.82c.51-1.78,2-.1,2.68.72a25.39,25.39,0,0,0,2.29,2.86,10,10,0,0,0,2.91,1.95,10.27,10.27,0,0,0,3.3.87,10.08,10.08,0,0,0,3.36-.51c.24-.06.13-.38-.1-.36a9.15,9.15,0,0,1-2.7-.27,14.42,14.42,0,0,1-2.17-.57,10.22,10.22,0,0,1-3.88-2.52c-1.3-1.37-3.36-5.52-5.82-4.19-2.12,1.14-1.39,4.9-1,6.75a41,41,0,0,0,3,8.18C409.11,320.48,410.5,323.18,412.75,324.46Z" style="fill:#ebebeb"></path><path d="M341.69,317.55a8.27,8.27,0,0,0,5.84.16c.39-.13.78-.28,1.17-.43l-.65.53a10.08,10.08,0,0,0-3.23,4.77c0,.12.12.22.2.13,1.3-1.33,2.62-2.66,4-3.85s3-2.29,4.42-3.52a.42.42,0,0,0-.28-.7c-2,.05-3.64,1.11-5.49,1.69a26.42,26.42,0,0,1-6,1.06C341.66,317.4,341.6,317.51,341.69,317.55Z" style="fill:#ebebeb"></path><path d="M360.65,329.9a53.4,53.4,0,0,0-3.81,5.3c-.12.19.16.41.33.25,1.91-1.74,3.57-3.75,5.38-5.59s3.59-3.48,5.49-5.1a36.12,36.12,0,0,1,10.27-6.28,22.87,22.87,0,0,1,3-.92,6.94,6.94,0,0,1,3.26-.25c1.95.5,2.86,2.63,3.45,4.27,1.43,3.93,2.5,8.07,5.24,11.42a11.52,11.52,0,0,0,4.55,3.42,4.07,4.07,0,0,0,2.44.41c.27-.1.47-.3.26-.56-.07-.08-.21,0-.17.1s-1.13-.35-1.18-.37c-.23-.13-.48-.24-.71-.37a8.61,8.61,0,0,1-1.43-.94,15.1,15.1,0,0,1-2.31-2.28,20.89,20.89,0,0,1-3.27-6.34c-.68-1.93-1.23-3.91-2-5.81a8.07,8.07,0,0,0-3.19-4.08c-1.89-1.06-4.08-.73-6.07-.27a27.14,27.14,0,0,0-5.57,2,34.23,34.23,0,0,0-9.69,7.08A63.67,63.67,0,0,0,360.65,329.9Z" style="fill:#ebebeb"></path><path d="M365,334.87a20.12,20.12,0,0,0-2.22,4.36.12.12,0,0,0,.2.11c1.21-1.36,2.15-3,3.38-4.32s2.35-2.73,3.59-4a46.86,46.86,0,0,1,7.21-6.3,4.59,4.59,0,0,1,4.05-1,6.18,6.18,0,0,1,3.14,2.85c1.57,2.65,1.89,5.9,3.52,8.52a8.71,8.71,0,0,0,6.79,4.15c.1,0,.16-.17.06-.21a12.94,12.94,0,0,1-4.33-3.23,14.44,14.44,0,0,1-2.5-4.89c-1-3-1.91-6.14-4.53-8a5.47,5.47,0,0,0-4-1,9.44,9.44,0,0,0-4.1,2,40.64,40.64,0,0,0-7.36,6.94A35.05,35.05,0,0,0,365,334.87Z" style="fill:#ebebeb"></path><path d="M352.41,330.83a.31.31,0,0,0,.11.4.19.19,0,0,0,.1,0,.27.27,0,0,0,.28-.08,74.07,74.07,0,0,1,5.57-5.29,70.65,70.65,0,0,1,6.37-4.65,99.17,99.17,0,0,1,11.54-6.83,28.58,28.58,0,0,1,6.18-2.18c2-.45,4.83-1.05,6.27.87a11.9,11.9,0,0,1,1.67,4.17c.15.57.3,1.11.47,1.64a36,36,0,0,0,2.67,6.4,20.14,20.14,0,0,0,4.1,5.33,13.1,13.1,0,0,0,5.6,3.13.29.29,0,0,0,.36-.18.29.29,0,0,0-.12-.38c-5.49-3.22-8.39-8.48-9.85-12.32-.41-1.09-.75-2.22-1.06-3.32s-.64-2.2-1.05-3.27c-.88-2.34-2.31-3.74-4.24-4.18a15.67,15.67,0,0,0-6.93.53,31.34,31.34,0,0,0-6.39,2.45,87.36,87.36,0,0,0-11.82,7.56C358.41,323.5,354.57,326.67,352.41,330.83Z" style="fill:#ebebeb"></path><path d="M410.69,327.09c.26.2.52-.2.33-.42a33.5,33.5,0,0,1-6-9.62,26.3,26.3,0,0,1-1.67-9.53,27.54,27.54,0,0,1,.49-5c.23-1.21.52-4.29,2.28-3.95s2.31,2.63,3.14,3.85a13.5,13.5,0,0,0,3.49,3.62,8.86,8.86,0,0,0,9.52.61.11.11,0,0,0-.07-.2c-4.34,1.41-9.12-1.29-11.57-4.8-1-1.42-1.66-3.31-3.3-4.12a2.77,2.77,0,0,0-3.87,1.14,16.6,16.6,0,0,0-1.27,4.92,24.64,24.64,0,0,0-.23,5.15C402.43,315.58,405.19,322.81,410.69,327.09Z" style="fill:#ebebeb"></path><path d="M351.15,324a15.52,15.52,0,0,0-2.34,3.61.74.74,0,0,0,.26.9.56.56,0,0,0,.2.08.59.59,0,0,0,.6-.19c.68-.7,1.34-1.42,2-2.14a46,46,0,0,1,4.58-4.57,64.53,64.53,0,0,1,7.62-5.35,154.47,154.47,0,0,1,16.41-7.81c8-3.33,13.39-4.87,14.41-4.13.69.5.48,1.78.31,2.81-.06.34-.11.65-.13.92a41.51,41.51,0,0,0-.07,4.47,27.14,27.14,0,0,0,1.52,8.35,17.81,17.81,0,0,0,4.11,6.52c1,1,3.67,3.26,6.52,3.27a.4.4,0,0,0,.22-.74c-.41-.27-.83-.52-1.24-.77a20.93,20.93,0,0,1-2.55-1.7,16.19,16.19,0,0,1-3-3.3,19.93,19.93,0,0,1-3.21-8.63,42,42,0,0,1-.07-9,4.26,4.26,0,0,0-1-3.57c-.91-.9-2.8-.78-3.77-.57-5.52,1.18-23.94,8.42-31.65,13.19a42.35,42.35,0,0,0-6.71,5.28A38.26,38.26,0,0,0,351.15,324Z" style="fill:#ebebeb"></path><path d="M339.84,313.13c3.13,2.17,7.46,1.51,10.88.54s6.39-2.51,9.64-3.6c.84-.27,1.67-.52,2.52-.73l1.29-.27c.21,0,.49-.14.69,0s.26,0,.05.19l-.21.19a28.32,28.32,0,0,1-4.45,2.46,47.86,47.86,0,0,0-8.12,5.71c-2.36,2.06-4.88,4.48-6.06,7.45-.06.15.14.24.24.15,1.52-1.4,2.87-3,4.38-4.39a41,41,0,0,1,4.75-3.75c1.5-1,3-2,4.6-2.89s3.15-1.66,4.58-2.68c1-.7,2.82-2.22,1.38-3.43-1.17-1-3.33-.14-4.6.21-3.58,1-7,2.62-10.5,3.76a24.8,24.8,0,0,1-5.59,1.15,25.15,25.15,0,0,1-5.41-.27C339.77,312.88,339.74,313.07,339.84,313.13Z" style="fill:#ebebeb"></path><path d="M377.19,338.45l.06-.09a.22.22,0,0,1,.34,0l.06.06c.29.18.4.67.47,1s.16.72.25,1.08c.17.69.3,1.4.48,2.09a.14.14,0,0,1-.23.13,5.63,5.63,0,0,1-1.56-3A2.65,2.65,0,0,1,377,339,1,1,0,0,1,377.19,338.45Z" style="fill:#ebebeb"></path><polygon points="369.6 142.31 323.27 142.31 323.27 141.56 369.36 141.56 404.17 116.06 426.38 116.06 426.38 116.81 404.41 116.81 369.6 142.31" style="fill:#dbdbdb"></polygon><path d="M428.61,119.07a2.64,2.64,0,1,1,2.64-2.64A2.64,2.64,0,0,1,428.61,119.07Zm0-4.53a1.89,1.89,0,1,0,1.89,1.89A1.89,1.89,0,0,0,428.61,114.54Z" style="fill:#dbdbdb"></path><polygon points="365.4 134.86 323.27 134.86 323.27 134.11 365.15 134.11 399.96 108.61 408.5 108.61 408.5 109.36 400.21 109.36 365.4 134.86" style="fill:#dbdbdb"></polygon><path d="M410.72,111.62a2.64,2.64,0,1,1,2.64-2.64A2.64,2.64,0,0,1,410.72,111.62Zm0-4.53a1.89,1.89,0,1,0,1.89,1.89A1.89,1.89,0,0,0,410.72,107.09Z" style="fill:#dbdbdb"></path><rect x="323.27" y="149.09" width="85.09" height="0.75" style="fill:#dbdbdb"></rect><path d="M410.62,152.1a2.64,2.64,0,1,1,2.64-2.64A2.64,2.64,0,0,1,410.62,152.1Zm0-4.53a1.89,1.89,0,1,0,1.89,1.89A1.89,1.89,0,0,0,410.62,147.57Z" style="fill:#dbdbdb"></path><polygon points="450.11 174.74 391.47 174.74 391.38 174.7 358.81 157.43 323.27 157.43 323.27 156.68 359 156.68 391.65 173.99 450.11 173.99 450.11 174.74" style="fill:#dbdbdb"></polygon><path d="M452.37,177a2.64,2.64,0,1,1,2.64-2.64A2.64,2.64,0,0,1,452.37,177Zm0-4.53a1.89,1.89,0,1,0,1.89,1.89A1.89,1.89,0,0,0,452.37,172.48Z" style="fill:#dbdbdb"></path><polygon points="421.56 185.4 391.42 185.4 391.33 185.35 355.31 164.99 323.27 164.99 323.27 164.24 355.51 164.24 355.6 164.28 391.62 184.65 421.56 184.65 421.56 185.4" style="fill:#dbdbdb"></polygon><path d="M423.82,187.66a2.64,2.64,0,1,1,2.65-2.64A2.64,2.64,0,0,1,423.82,187.66Zm0-4.53a1.89,1.89,0,1,0,1.9,1.89A1.89,1.89,0,0,0,423.82,183.13Z" style="fill:#dbdbdb"></path><polygon points="176.73 327.27 131.24 327.27 131.14 327.19 96.43 301.76 65.94 301.76 65.94 301.01 96.67 301.01 96.77 301.09 131.48 326.52 176.73 326.52 176.73 327.27" style="fill:#dbdbdb"></polygon><path d="M63.71,304a2.64,2.64,0,1,1,2.64-2.64A2.64,2.64,0,0,1,63.71,304Zm0-4.53a1.89,1.89,0,1,0,1.89,1.89A1.89,1.89,0,0,0,63.71,299.5Z" style="fill:#dbdbdb"></path><polygon points="176.73 319.71 135.44 319.71 135.34 319.64 100.63 294.2 83.83 294.2 83.83 293.45 100.88 293.45 100.98 293.53 135.69 318.96 176.73 318.96 176.73 319.71" style="fill:#dbdbdb"></polygon><path d="M81.6,296.47a2.64,2.64,0,1,1,2.64-2.64A2.64,2.64,0,0,1,81.6,296.47Zm0-4.53a1.89,1.89,0,1,0,1.89,1.89A1.89,1.89,0,0,0,81.6,291.94Z" style="fill:#dbdbdb"></path><rect x="49.89" y="334.13" width="126.84" height="0.75" style="fill:#dbdbdb"></rect><path d="M47.63,337.14a2.64,2.64,0,1,1,2.64-2.64A2.64,2.64,0,0,1,47.63,337.14Zm0-4.53a1.89,1.89,0,1,0,1.89,1.89A1.89,1.89,0,0,0,47.63,332.61Z" style="fill:#dbdbdb"></path><polygon points="109.37 359.7 93.32 359.7 93.32 358.95 109.19 358.95 141.84 341.64 176.73 341.64 176.73 342.39 142.03 342.39 109.37 359.7" style="fill:#dbdbdb"></polygon><path d="M91.06,362a2.65,2.65,0,1,1,2.64-2.64A2.65,2.65,0,0,1,91.06,362Zm0-4.54a1.9,1.9,0,1,0,1.89,1.9A1.9,1.9,0,0,0,91.06,357.43Z" style="fill:#dbdbdb"></path><polygon points="109.42 370.35 70.76 370.35 70.76 369.6 109.22 369.6 145.33 349.19 176.73 349.19 176.73 349.94 145.52 349.94 109.42 370.35" style="fill:#dbdbdb"></polygon><path d="M68.5,372.62A2.64,2.64,0,1,1,71.14,370,2.64,2.64,0,0,1,68.5,372.62Zm0-4.53A1.89,1.89,0,1,0,70.39,370,1.89,1.89,0,0,0,68.5,368.09Z" style="fill:#dbdbdb"></path><polygon points="257.18 102.36 256.43 102.36 256.43 64.97 256.5 64.87 271.46 44.45 271.46 38.65 272.21 38.65 272.21 44.7 272.14 44.79 257.18 65.22 257.18 102.36" style="fill:#dbdbdb"></polygon><path d="M271.84,38.94a2.65,2.65,0,1,1,2.64-2.64A2.64,2.64,0,0,1,271.84,38.94Zm0-4.54a1.9,1.9,0,1,0,1.89,1.9A1.9,1.9,0,0,0,271.84,34.4Z" style="fill:#dbdbdb"></path><polygon points="264.74 102.36 263.99 102.36 263.99 69.17 264.06 69.08 282.14 44.4 282.14 32.79 282.89 32.79 282.89 44.65 282.82 44.74 264.74 69.42 264.74 102.36" style="fill:#dbdbdb"></polygon><path d="M282.51,33.17a2.65,2.65,0,1,1,2.65-2.65A2.65,2.65,0,0,1,282.51,33.17Zm0-4.54a1.9,1.9,0,1,0,1.9,1.89A1.89,1.89,0,0,0,282.51,28.63Z" style="fill:#dbdbdb"></path><rect x="248.87" y="47.62" width="0.75" height="54.73" style="fill:#dbdbdb"></rect><path d="M249.25,48a2.64,2.64,0,1,1,2.64-2.64A2.64,2.64,0,0,1,249.25,48Zm0-4.53a1.89,1.89,0,1,0,1.89,1.89A1.88,1.88,0,0,0,249.25,43.47Z" style="fill:#dbdbdb"></path><polygon points="242.06 102.36 241.31 102.36 241.31 75.77 229.73 53.91 229.73 33.27 230.48 33.27 230.48 53.72 242.06 75.58 242.06 102.36" style="fill:#dbdbdb"></polygon><path d="M230.1,33.42a2.64,2.64,0,1,1,2.64-2.64A2.64,2.64,0,0,1,230.1,33.42Zm0-4.53A1.89,1.89,0,1,0,232,30.78,1.89,1.89,0,0,0,230.1,28.89Z" style="fill:#dbdbdb"></path><polygon points="234.5 102.36 233.75 102.36 233.75 79.26 217.11 49.82 217.11 43.96 217.86 43.96 217.86 49.62 234.5 79.06 234.5 102.36" style="fill:#dbdbdb"></polygon><path d="M217.48,44.19a2.64,2.64,0,1,1,2.65-2.64A2.64,2.64,0,0,1,217.48,44.19Zm0-4.53a1.89,1.89,0,1,0,1.9,1.89A1.89,1.89,0,0,0,217.48,39.66Z" style="fill:#dbdbdb"></path><rect x="66.25" y="73.4" width="141.85" height="21.5" style="fill:#fff"></rect><path d="M208.34,95.14H66v-22H208.34ZM66.49,94.66H207.86v-21H66.49Z" style="fill:#dbdbdb"></path><path d="M99.05,79.23a12.15,12.15,0,0,1,.57,2.46,20.25,20.25,0,0,1,0,4.92,11.52,11.52,0,0,1-.57,2.46,12.15,12.15,0,0,1-.57-2.46,20.3,20.3,0,0,1-.15-2.46,18.48,18.48,0,0,1,.16-2.46A11.49,11.49,0,0,1,99.05,79.23Z" style="fill:#c7c7c7"></path><path d="M104,84.15a12.15,12.15,0,0,1-2.46.57,20.25,20.25,0,0,1-4.92,0,11.52,11.52,0,0,1-2.46-.57,11.52,11.52,0,0,1,2.46-.57,20.3,20.3,0,0,1,2.46-.15,18.48,18.48,0,0,1,2.46.16A11.49,11.49,0,0,1,104,84.15Z" style="fill:#c7c7c7"></path><path d="M102.53,80.67a11.89,11.89,0,0,1-1.34,2.14,19.08,19.08,0,0,1-1.63,1.85,18,18,0,0,1-1.85,1.63,11.89,11.89,0,0,1-2.14,1.34,11.89,11.89,0,0,1,1.34-2.14A19.54,19.54,0,0,1,100.39,82,11.89,11.89,0,0,1,102.53,80.67Z" style="fill:#c7c7c7"></path><path d="M102.53,87.63a11.89,11.89,0,0,1-2.14-1.34,19.54,19.54,0,0,1-3.48-3.48,11.89,11.89,0,0,1-1.34-2.14A11.89,11.89,0,0,1,97.71,82a18,18,0,0,1,1.85,1.63,19.08,19.08,0,0,1,1.63,1.85A11.89,11.89,0,0,1,102.53,87.63Z" style="fill:#c7c7c7"></path><path d="M118.25,79.23a12.12,12.12,0,0,1,.56,2.46,19,19,0,0,1,0,4.92,11.49,11.49,0,0,1-.56,2.46,10.94,10.94,0,0,1-.57-2.46,18.48,18.48,0,0,1-.16-2.46,20.32,20.32,0,0,1,.16-2.46A11.52,11.52,0,0,1,118.25,79.23Z" style="fill:#c7c7c7"></path><path d="M123.17,84.15a12.15,12.15,0,0,1-2.46.57,20.33,20.33,0,0,1-4.93,0,11.52,11.52,0,0,1-2.46-.57,11.52,11.52,0,0,1,2.46-.57,20.34,20.34,0,0,1,2.47-.15,18.48,18.48,0,0,1,2.46.16A11.49,11.49,0,0,1,123.17,84.15Z" style="fill:#c7c7c7"></path><path d="M121.73,80.67a11.89,11.89,0,0,1-1.34,2.14,20.64,20.64,0,0,1-1.64,1.85,17.86,17.86,0,0,1-1.84,1.63,11.64,11.64,0,0,1-2.15,1.34,11.89,11.89,0,0,1,1.34-2.14A20,20,0,0,1,119.59,82,11.89,11.89,0,0,1,121.73,80.67Z" style="fill:#c7c7c7"></path><path d="M121.73,87.63a11.89,11.89,0,0,1-2.14-1.34,20,20,0,0,1-3.49-3.48,11.89,11.89,0,0,1-1.34-2.14A11.64,11.64,0,0,1,116.91,82a17.86,17.86,0,0,1,1.84,1.63,20.64,20.64,0,0,1,1.64,1.85A11.89,11.89,0,0,1,121.73,87.63Z" style="fill:#c7c7c7"></path><path d="M137.44,79.23a11.49,11.49,0,0,1,.56,2.46,18.48,18.48,0,0,1,.16,2.46,20.3,20.3,0,0,1-.15,2.46,12.15,12.15,0,0,1-.57,2.46,11.52,11.52,0,0,1-.57-2.46,20.25,20.25,0,0,1,0-4.92A12.15,12.15,0,0,1,137.44,79.23Z" style="fill:#c7c7c7"></path><path d="M142.36,84.15a12.15,12.15,0,0,1-2.46.57,20.25,20.25,0,0,1-4.92,0,11.52,11.52,0,0,1-2.46-.57,11.52,11.52,0,0,1,2.46-.57,20.3,20.3,0,0,1,2.46-.15,18.48,18.48,0,0,1,2.46.16A11.49,11.49,0,0,1,142.36,84.15Z" style="fill:#c7c7c7"></path><path d="M140.92,80.67a11.89,11.89,0,0,1-1.34,2.14A20.53,20.53,0,0,1,138,84.66a19.08,19.08,0,0,1-1.85,1.63A11.89,11.89,0,0,1,134,87.63a11.89,11.89,0,0,1,1.34-2.14,19.08,19.08,0,0,1,1.63-1.85A20.53,20.53,0,0,1,138.78,82,11.89,11.89,0,0,1,140.92,80.67Z" style="fill:#c7c7c7"></path><path d="M140.92,87.63a11.89,11.89,0,0,1-2.14-1.34,19.08,19.08,0,0,1-1.85-1.63,18,18,0,0,1-1.63-1.85A11.89,11.89,0,0,1,134,80.67,11.89,11.89,0,0,1,136.1,82,19.08,19.08,0,0,1,138,83.64a20.53,20.53,0,0,1,1.63,1.85A11.89,11.89,0,0,1,140.92,87.63Z" style="fill:#c7c7c7"></path><path d="M156.63,79.23a11.52,11.52,0,0,1,.57,2.46,20.3,20.3,0,0,1,.15,2.46,18.46,18.46,0,0,1-.15,2.46,11.52,11.52,0,0,1-.57,2.46,11.49,11.49,0,0,1-.56-2.46,19,19,0,0,1,0-4.92A11.49,11.49,0,0,1,156.63,79.23Z" style="fill:#c7c7c7"></path><path d="M161.56,84.15a12.15,12.15,0,0,1-2.46.57,20.59,20.59,0,0,1-2.47.15,20.3,20.3,0,0,1-2.46-.15,11.52,11.52,0,0,1-2.46-.57,11.52,11.52,0,0,1,2.46-.57,20.3,20.3,0,0,1,2.46-.15,18.73,18.73,0,0,1,2.47.16A11.49,11.49,0,0,1,161.56,84.15Z" style="fill:#c7c7c7"></path><path d="M160.11,80.67a11.36,11.36,0,0,1-1.34,2.14,19.08,19.08,0,0,1-1.63,1.85,18,18,0,0,1-1.85,1.63,11.89,11.89,0,0,1-2.14,1.34,11.89,11.89,0,0,1,1.34-2.14A19.54,19.54,0,0,1,158,82,11.89,11.89,0,0,1,160.11,80.67Z" style="fill:#c7c7c7"></path><path d="M160.11,87.63A11.89,11.89,0,0,1,158,86.29a19.54,19.54,0,0,1-3.48-3.48,11.89,11.89,0,0,1-1.34-2.14A11.89,11.89,0,0,1,155.29,82a18,18,0,0,1,1.85,1.63,19.08,19.08,0,0,1,1.63,1.85A11.36,11.36,0,0,1,160.11,87.63Z" style="fill:#c7c7c7"></path><path d="M175.83,79.23a11.49,11.49,0,0,1,.56,2.46,19,19,0,0,1,0,4.92,11.49,11.49,0,0,1-.56,2.46,11.52,11.52,0,0,1-.57-2.46,18.46,18.46,0,0,1-.15-2.46,20.3,20.3,0,0,1,.15-2.46A11.52,11.52,0,0,1,175.83,79.23Z" style="fill:#c7c7c7"></path><path d="M180.75,84.15a12.15,12.15,0,0,1-2.46.57,20.25,20.25,0,0,1-4.92,0,11.46,11.46,0,0,1-2.47-.57,11.46,11.46,0,0,1,2.47-.57,20.3,20.3,0,0,1,2.46-.15,18.48,18.48,0,0,1,2.46.16A11.49,11.49,0,0,1,180.75,84.15Z" style="fill:#c7c7c7"></path><path d="M179.31,80.67A11.89,11.89,0,0,1,178,82.81a20.53,20.53,0,0,1-1.63,1.85,19.08,19.08,0,0,1-1.85,1.63,11.89,11.89,0,0,1-2.14,1.34,10.87,10.87,0,0,1,1.34-2.14A19.54,19.54,0,0,1,177.17,82,11.89,11.89,0,0,1,179.31,80.67Z" style="fill:#c7c7c7"></path><path d="M179.31,87.63a11.89,11.89,0,0,1-2.14-1.34,19.54,19.54,0,0,1-3.48-3.48,10.87,10.87,0,0,1-1.34-2.14A11.89,11.89,0,0,1,174.49,82a19.08,19.08,0,0,1,1.85,1.63A20.53,20.53,0,0,1,178,85.49,11.89,11.89,0,0,1,179.31,87.63Z" style="fill:#c7c7c7"></path><path d="M195,79.23a12.15,12.15,0,0,1,.57,2.46,20.25,20.25,0,0,1,0,4.92,11.52,11.52,0,0,1-.57,2.46,12.15,12.15,0,0,1-.57-2.46,20.3,20.3,0,0,1-.15-2.46,18.48,18.48,0,0,1,.16-2.46A11.49,11.49,0,0,1,195,79.23Z" style="fill:#c7c7c7"></path><path d="M199.94,84.15a12.15,12.15,0,0,1-2.46.57,20.25,20.25,0,0,1-4.92,0,11.52,11.52,0,0,1-2.46-.57,11.52,11.52,0,0,1,2.46-.57,20.3,20.3,0,0,1,2.46-.15,18.48,18.48,0,0,1,2.46.16A11.49,11.49,0,0,1,199.94,84.15Z" style="fill:#c7c7c7"></path><path d="M198.5,80.67a11.89,11.89,0,0,1-1.34,2.14,19.08,19.08,0,0,1-1.63,1.85,18,18,0,0,1-1.85,1.63,11.89,11.89,0,0,1-2.14,1.34,11.89,11.89,0,0,1,1.34-2.14A19.54,19.54,0,0,1,196.36,82,11.89,11.89,0,0,1,198.5,80.67Z" style="fill:#c7c7c7"></path><path d="M198.5,87.63a11.89,11.89,0,0,1-2.14-1.34,19.54,19.54,0,0,1-3.48-3.48,11.89,11.89,0,0,1-1.34-2.14A11.89,11.89,0,0,1,193.68,82a18,18,0,0,1,1.85,1.63,19.08,19.08,0,0,1,1.63,1.85A11.89,11.89,0,0,1,198.5,87.63Z" style="fill:#c7c7c7"></path><rect x="66.49" y="73.4" width="21.29" height="21.29" style="fill:#dbdbdb"></rect><path d="M80.66,81.49v3.8H79.58v-3.8a2.46,2.46,0,1,0-4.9,0v3.8H73.61v-3.8a3.53,3.53,0,1,1,7,0Z" style="fill:#fff"></path><polygon points="73.61 82.48 74.68 82.52 74.68 85.29 73.61 85.29 73.61 82.48" style="fill:#fff"></polygon><polygon points="80.66 82.77 80.66 85.29 79.58 85.29 79.58 82.72 80.66 82.77" style="fill:#fff"></polygon><rect x="72.23" y="83.13" width="9.8" height="7.22" style="fill:#fff"></rect><rect x="77.13" y="83.13" width="4.9" height="7.22" style="fill:#fff;opacity:0.1"></rect><path d="M77.51,87l.37,1.77H76.29L76.67,87a.79.79,0,0,1-.38-.67.8.8,0,1,1,1.22.67Z" style="fill:#dbdbdb"></path></g><g id="freepik--Floor--inject-167"><path d="M54.81,465.21c125.05-.62,265.33-.62,390.38,0-125,.61-265.33.61-390.38,0Z" style="fill:#263238"></path></g><g id="freepik--Plant--inject-167"><path d="M440.27,368.16c-13.26,18-27.09,38.81-30.46,61.34a.3.3,0,0,0,.59.11,133.16,133.16,0,0,1,5.86-18c8.72-2.4,17.28-4.38,21.86-13,4.67-8.9,4.08-20.5,3.19-30.19C441.25,367.84,440.54,367.82,440.27,368.16Z" style="fill:#031C21"></path><path d="M416.39,411.41c6-13.37,13.61-26.8,23.33-37.8.07-.07.17,0,.11.11-6.37,7.83-11.2,16.36-15.93,25,4.4-4.46,9.21-8.45,13.37-13.18.08-.09.21,0,.13.13-4.13,5-8.64,10.35-14,14-1.45,2.67-2.9,5.34-4.38,8,.36-.2.74-.39,1.11-.57.06,0,.12.07.06.1-.41.21-.82.43-1.24.61-.7,1.26-1.39,2.52-2.11,3.78C416.66,411.94,416.27,411.69,416.39,411.41Z" style="fill:#263238"></path><path d="M420.83,406.74A79.75,79.75,0,0,0,431,400c.08-.07.21.05.12.12A53.59,53.59,0,0,1,421,407,.14.14,0,0,1,420.83,406.74Z" style="fill:#263238"></path><path d="M408.28,426.15c0,.27.49.27.48,0,.07-7.42,0-14.87.12-22.33,1.9-3.83,6-5.95,8.82-9a39.85,39.85,0,0,0,5.29-7.36,53.07,53.07,0,0,0,6.13-20.47c.79-7.93-2.22-34.12-5.57-33.21-1.73.47-7.35,13.44-8.84,17.73a124.65,124.65,0,0,0-5.28,21.74C406.72,390.66,407,408.58,408.28,426.15Z" style="fill:#031C21"></path><path d="M408.22,394.15l0,0c.4-9.39,2.52-18.87,4.5-28,2.13-9.81,4.62-19,9.67-27.79.09-.16.33,0,.25.15a103.26,103.26,0,0,0-7.77,21.33c.34-.53.75-1,1.1-1.53.14-.2.46,0,.33.19a13.51,13.51,0,0,1-1.58,2.22s0,0-.07,0c-1.73,7-3,14.19-4.05,21.34l.24-.28c.05-.06.15,0,.11.09-.13.23-.28.47-.43.7-.53,3.64-1,7.26-1.53,10.85,6.46-5.52,12-12,15.1-20.06,0,0,.07,0,.06,0-3.05,8.32-7.86,15.72-15.27,20.77-.13,1-.27,1.93-.4,2.9,0,.2-.35.14-.35-.05,0-.86,0-1.71.08-2.57A.2.2,0,0,1,408.22,394.15Z" style="fill:#263238"></path><path d="M411.27,380.55c4.94-7.38,9.55-14.54,13.17-22.68,0-.1.19,0,.16.06-3.05,8.1-7.31,16.3-13.08,22.81C411.4,380.87,411.17,380.7,411.27,380.55Z" style="fill:#263238"></path><path d="M417.83,356c2.05-3.62,4.21-7.14,6.13-10.83.06-.11.2,0,.16.09a56.8,56.8,0,0,1-6,10.93A.19.19,0,0,1,417.83,356Z" style="fill:#263238"></path><path d="M417,357.62a0,0,0,1,1,0,.06A0,0,0,0,1,417,357.62Z" style="fill:#263238"></path><path d="M403.26,404.7a75.45,75.45,0,0,1-1.74,14.61c.08.53.15,1.06.23,1.6a69.84,69.84,0,0,0,2.62-16.29.49.49,0,0,0,0-.5v0A107.57,107.57,0,0,0,402.75,382c-2.3-13.64-7.32-26.72-16.82-36.94a.68.68,0,0,0-1.05.22c-3.84,9.75-2.5,21.39.77,31.13a56.53,56.53,0,0,0,7.54,14.78C396.45,395.81,400.61,399.69,403.26,404.7Z" style="fill:#031C21"></path><path d="M387.05,349.66c9,14.62,15.28,32,16.05,49.24,0,.3-.5.38-.55.07-.21-1.55-.45-3.09-.7-4.62,0,0,0,0,0,0-3.73-3.57-7.56-7.34-10.23-11.8,0-.08.07-.17.13-.1,3.25,3.71,6.27,7.51,9.93,10.81q-1-5.73-2.31-11.28l-.71-.84c-.16-.18.1-.45.26-.27l.22.24a130.24,130.24,0,0,0-4.71-15c-2.3-2.74-4.86-5.1-6.53-8.4a.07.07,0,0,1,.12-.07c1.34,1.88,2.64,3.78,4.17,5.53.6.7,1.27,1.35,1.9,2a114.47,114.47,0,0,0-7.38-15.38A.2.2,0,0,1,387.05,349.66Z" style="fill:#263238"></path><path d="M388.87,367.7c2.91,3.92,6.23,7.66,8.94,11.71.08.11-.09.23-.19.14-3.48-3.26-6.42-7.72-8.94-11.74C388.6,367.69,388.79,367.58,388.87,367.7Z" style="fill:#263238"></path><path d="M398.22,380.32l.12.12a.09.09,0,1,1-.13.13l-.12-.12A.09.09,0,1,1,398.22,380.32Z" style="fill:#263238"></path><path d="M372.93,377.77c.73,7.53,4.68,16.51,9.51,22.31a23.7,23.7,0,0,0,7.71,6c3.34,1.65,6.84,3.55,10.29,4.91A67.69,67.69,0,0,1,404.09,424l.33-1.14c-2.22-19.05-14.54-35.34-30.31-45.79A.77.77,0,0,0,372.93,377.77Z" style="fill:#031C21"></path><path d="M378.38,383.4c-.11-.1,0-.3.16-.21A64.45,64.45,0,0,1,398.63,408c.12.26-.24.49-.39.23q-1.1-1.92-2.24-3.76h0c-3.6-.68-7-3.21-9.68-5.61-.07-.07,0-.17.11-.11a21.83,21.83,0,0,0,4.55,3.2c1.47.74,3,1.21,4.57,1.81-1.33-2.12-2.72-4.15-4.17-6.12a41.63,41.63,0,0,1-10.82-6.08c-.1-.07,0-.24.1-.17a106.88,106.88,0,0,0,10.06,5.37,90.69,90.69,0,0,0-7.1-8.27c-1.22-.65-2.46-1.3-3.65-2a.1.1,0,0,1,.08-.18,13.42,13.42,0,0,1,2.8,1.37C381.42,386.21,380,384.78,378.38,383.4Z" style="fill:#263238"></path><path d="M378.72,390a5,5,0,0,1,.6.43c.06,0,0,.13-.07.1a4,4,0,0,1-.64-.36A.1.1,0,0,1,378.72,390Z" style="fill:#263238"></path><polygon points="429.03 465.21 385.82 465.21 389.31 425.86 390.07 417.18 424.77 417.18 425.54 425.86 429.03 465.21" style="fill:#455a64"></polygon><polygon points="425.54 425.86 389.31 425.86 390.07 417.18 424.77 417.18 425.54 425.86" style="fill:#263238"></polygon><rect x="388.01" y="411.11" width="38.83" height="8.59" style="fill:#455a64"></rect></g><g id="freepik--Device--inject-167"><path d="M334.51,82.36h-169a17.26,17.26,0,0,0-17.11,17.42v348a17.27,17.27,0,0,0,17.11,17.42h169a17.28,17.28,0,0,0,17.13-17.42v-348A17.27,17.27,0,0,0,334.51,82.36ZM340.94,437c0,9.16-6.86,16.57-15.32,16.57H174.39c-8.49,0-15.34-7.41-15.34-16.57V113c0-18.66,6.85-19.57,15.34-19.57h30.29c1.76,0,3.2,2,3.2,4.48V99c0,5.81,3.18,5.83,7.09,5.83h70c4,0,7.09,0,7.09-5.83V97.88c0-2.48,1.42-4.48,3.22-4.48h30.29c8.46,0,15.32,2.48,15.32,19.57Z" style="fill:#263238"></path><path d="M259.55,97.52H240.44a1.18,1.18,0,0,1-1.18-1.18h0a1.18,1.18,0,0,1,1.18-1.18h19.11a1.18,1.18,0,0,1,1.18,1.18h0A1.18,1.18,0,0,1,259.55,97.52Z" style="fill:#fff"></path><path d="M340.94,113V437c0,9.16-6.86,16.57-15.32,16.57H174.39c-8.49,0-15.34-7.41-15.34-16.57V113c0-18.66,6.85-19.57,15.34-19.57h30.29c1.76,0,3.2,2,3.2,4.48V99c0,5.81,3.18,5.83,7.09,5.83h70c4,0,7.09,0,7.09-5.83V97.88c0-2.48,1.42-4.48,3.22-4.48h30.29C334.08,93.4,340.94,95.88,340.94,113Z" style="fill:#fff"></path><g id="freepik--u5Zjqx--inject-167"><path d="M199.45,100.67l-.29.29c-.06.06-.11.12-.17.17a4,4,0,0,0-5.64,0c-.06,0-.11-.11-.16-.16l-.29-.29h0l0,0,.37-.33a4,4,0,0,1,.86-.54,4.59,4.59,0,0,1,1.13-.39l.57-.07h.5l.38,0a4.51,4.51,0,0,1,1,.25,4.58,4.58,0,0,1,.71.33,4.48,4.48,0,0,1,.67.47l.31.28Z" style="fill:#a6a6a6"></path><path d="M194.27,102.05l-.46-.46a3.31,3.31,0,0,1,1.88-.94,3.26,3.26,0,0,1,2.83.94l-.46.46a2.61,2.61,0,0,0-1.89-.78A2.65,2.65,0,0,0,194.27,102.05Z" style="fill:#a6a6a6"></path><path d="M197.6,102.51l-.46.46a1.35,1.35,0,0,0-1-.4,1.32,1.32,0,0,0-1,.41l-.46-.46A2,2,0,0,1,197.6,102.51Z" style="fill:#a6a6a6"></path><path d="M196.58,103.39a.41.41,0,0,1-.41.42.42.42,0,0,1-.42-.42.41.41,0,0,1,.42-.41A.41.41,0,0,1,196.58,103.39Z" style="fill:#a6a6a6"></path></g><path d="M170.9,101.56a1.21,1.21,0,1,1,1.21,1.2A1.21,1.21,0,0,1,170.9,101.56Z" style="fill:#a6a6a6"></path><path d="M174.7,101.56a1.21,1.21,0,1,1,1.21,1.2A1.21,1.21,0,0,1,174.7,101.56Z" style="fill:#a6a6a6"></path><path d="M178.5,101.56a1.21,1.21,0,1,1,1.2,1.2A1.21,1.21,0,0,1,178.5,101.56Z" style="fill:#a6a6a6"></path><path d="M182.3,101.56a1.21,1.21,0,1,1,1.2,1.2A1.21,1.21,0,0,1,182.3,101.56Z" style="fill:#a6a6a6"></path><path d="M186.09,101.56a1.21,1.21,0,1,1,1.21,1.2A1.21,1.21,0,0,1,186.09,101.56Z" style="fill:#a6a6a6"></path><rect x="317.73" y="99.89" width="9.31" height="4.05" style="fill:#a6a6a6"></rect><path d="M327.3,104.19h-9.82V99.64h9.82Zm-9.32-.5h8.82v-3.55H318Z" style="fill:#fff"></path><rect x="318.3" y="100.42" width="6.33" height="3" style="fill:#a6a6a6"></rect><rect x="327.3" y="100.7" width="0.87" height="2.43" style="fill:#a6a6a6"></rect><path d="M167.81,170.27a7.18,7.18,0,0,1,1.14-4,3.55,3.55,0,0,1,6.27,0,7.77,7.77,0,0,1,0,8.07,3.56,3.56,0,0,1-6.27,0A7.24,7.24,0,0,1,167.81,170.27Zm6.67,0a5.63,5.63,0,0,0-.81-3,2,2,0,0,0-1.58-1,2,2,0,0,0-1.6,1,5.63,5.63,0,0,0-.81,3,5.57,5.57,0,0,0,.81,3,2.06,2.06,0,0,0,1.6,1.05,2,2,0,0,0,1.58-1.05A5.57,5.57,0,0,0,174.48,170.27Z" style="fill:#c7c7c7"></path><path d="M187.6,170.27a7.19,7.19,0,0,1,1.15-4,3.55,3.55,0,0,1,6.26,0,7.77,7.77,0,0,1,0,8.07,3.55,3.55,0,0,1-6.26,0A7.25,7.25,0,0,1,187.6,170.27Zm6.67,0a5.63,5.63,0,0,0-.81-3,2,2,0,0,0-1.57-1,2,2,0,0,0-1.61,1,5.63,5.63,0,0,0-.81,3,5.57,5.57,0,0,0,.81,3,2.06,2.06,0,0,0,1.61,1.05,2,2,0,0,0,1.57-1.05A5.57,5.57,0,0,0,194.27,170.27Z" style="fill:#c7c7c7"></path><path d="M178.39,187.56a7.28,7.28,0,0,1,1.15-4,3.55,3.55,0,0,1,6.26,0,7.77,7.77,0,0,1,0,8.07,3.55,3.55,0,0,1-6.26,0A7.32,7.32,0,0,1,178.39,187.56Zm6.67,0a5.64,5.64,0,0,0-.81-3,2,2,0,0,0-1.57-1,2,2,0,0,0-1.6,1,5.56,5.56,0,0,0-.81,3,5.42,5.42,0,0,0,.81,3,2,2,0,0,0,1.6,1.05,2,2,0,0,0,1.57-1.05A5.51,5.51,0,0,0,185.06,187.56Z" style="fill:#dbdbdb"></path><path d="M214.6,187.56a7.19,7.19,0,0,1,1.14-4,3.56,3.56,0,0,1,6.27,0,7.77,7.77,0,0,1,0,8.07,3.55,3.55,0,0,1-6.27,0A7.23,7.23,0,0,1,214.6,187.56Zm6.67,0a5.64,5.64,0,0,0-.81-3,2,2,0,0,0-1.58-1,2,2,0,0,0-1.6,1,5.64,5.64,0,0,0-.81,3,5.51,5.51,0,0,0,.81,3,2.06,2.06,0,0,0,1.6,1.05,2,2,0,0,0,1.58-1.05A5.51,5.51,0,0,0,221.27,187.56Z" style="fill:#dbdbdb"></path><path d="M198.68,170.27a7.19,7.19,0,0,1,1.15-4,3.55,3.55,0,0,1,6.26,0,7.77,7.77,0,0,1,0,8.07,3.55,3.55,0,0,1-6.26,0A7.25,7.25,0,0,1,198.68,170.27Zm6.67,0a5.63,5.63,0,0,0-.81-3,2,2,0,0,0-1.57-1,2,2,0,0,0-1.61,1,5.63,5.63,0,0,0-.81,3,5.57,5.57,0,0,0,.81,3,2.06,2.06,0,0,0,1.61,1.05,2,2,0,0,0,1.57-1.05A5.57,5.57,0,0,0,205.35,170.27Z" style="fill:#dbdbdb"></path><path d="M183.58,165.29v10a.94.94,0,0,1-1,.92.91.91,0,0,1-.93-.92V167l-.67.39a.84.84,0,0,1-.47.13.94.94,0,0,1-.49-1.74l2.07-1.23s.05,0,.07,0,0,0,.09-.05l.1,0s0,0,.06,0a.27.27,0,0,1,.12,0h.19s0,0,.07,0,.06,0,.1,0H183c.05,0,.07,0,.11,0a.1.1,0,0,0,.06.05l.07.05s0,.06.07.07a.68.68,0,0,1,.05.07l.07.07v0s0,0,0,.05a.14.14,0,0,1,0,.09s0,.06,0,.08,0,.07,0,.08,0,.09,0,.12Z" style="fill:#dbdbdb"></path><path d="M187.88,255.66a7.18,7.18,0,0,1,1.14-4,3.55,3.55,0,0,1,6.27,0,7.77,7.77,0,0,1,0,8.07,3.56,3.56,0,0,1-6.27,0A7.24,7.24,0,0,1,187.88,255.66Zm6.67,0a5.52,5.52,0,0,0-.82-3,1.94,1.94,0,0,0-1.57-1,2,2,0,0,0-1.6,1,5.94,5.94,0,0,0,0,6,2.06,2.06,0,0,0,1.6,1.05,2,2,0,0,0,1.57-1.05A5.48,5.48,0,0,0,194.55,255.66Z" style="fill:#c7c7c7"></path><path d="M183.86,250.68v10a.94.94,0,0,1-1,.93.92.92,0,0,1-.93-.93v-8.3l-.67.39a.89.89,0,0,1-.48.13.95.95,0,0,1-.49-1.74l2.08-1.23.07,0s0,0,.08,0h.1a.1.1,0,0,1,.07,0,.27.27,0,0,1,.12,0h.19s0,0,.06,0a.24.24,0,0,1,.1,0,.1.1,0,0,1,.07,0c.05,0,.07.05.1.05a.18.18,0,0,0,.07,0l.07.05.07.07a.68.68,0,0,1,0,.07l.06.06,0,0s0,0,0,0,0,.05,0,.08a.92.92,0,0,1,0,.09.45.45,0,0,0,0,.08c0,.05,0,.09,0,.12Z" style="fill:#dbdbdb"></path><path d="M210.37,250.68v10a.94.94,0,0,1-1,.93.91.91,0,0,1-.92-.93v-8.3l-.68.39a.84.84,0,0,1-.47.13.92.92,0,0,1-.8-.47.91.91,0,0,1,.31-1.27l2.07-1.23.07,0s.05,0,.09,0h.1a.1.1,0,0,1,.07,0,.22.22,0,0,1,.11,0h.19a.1.1,0,0,0,.07,0c.05,0,.06,0,.1,0a.1.1,0,0,1,.07,0s.06.05.1.05a.1.1,0,0,0,.06,0s.06,0,.07.05.05.05.07.07a.21.21,0,0,1,.05.07l.07.06v0s0,0,0,0,0,.05,0,.08,0,.07,0,.09a.45.45,0,0,0,0,.08.16.16,0,0,0,0,.12Z" style="fill:#dbdbdb"></path><path d="M167.81,222.08a7.19,7.19,0,0,1,1.14-4,3.56,3.56,0,0,1,6.27,0,7.77,7.77,0,0,1,0,8.07,3.55,3.55,0,0,1-6.27,0A7.23,7.23,0,0,1,167.81,222.08Zm6.67,0a5.64,5.64,0,0,0-.81-3,2,2,0,0,0-1.58-1,2,2,0,0,0-1.6,1,5.64,5.64,0,0,0-.81,3,5.51,5.51,0,0,0,.81,3,2.06,2.06,0,0,0,1.6,1.05,2,2,0,0,0,1.58-1.05A5.51,5.51,0,0,0,174.48,222.08Z" style="fill:#dbdbdb"></path><path d="M187.6,222.08a7.2,7.2,0,0,1,1.15-4,3.55,3.55,0,0,1,6.26,0,7.77,7.77,0,0,1,0,8.07,3.55,3.55,0,0,1-6.26,0A7.24,7.24,0,0,1,187.6,222.08Zm6.67,0a5.64,5.64,0,0,0-.81-3,2,2,0,0,0-1.57-1,2,2,0,0,0-1.61,1,5.64,5.64,0,0,0-.81,3,5.51,5.51,0,0,0,.81,3,2.06,2.06,0,0,0,1.61,1.05,2,2,0,0,0,1.57-1.05A5.51,5.51,0,0,0,194.27,222.08Z" style="fill:#dbdbdb"></path><path d="M217,238.55a7.27,7.27,0,0,1,1.15-4,3.55,3.55,0,0,1,6.27,0,7.77,7.77,0,0,1,0,8.07,3.56,3.56,0,0,1-6.27,0A7.33,7.33,0,0,1,217,238.55Zm6.67,0a5.52,5.52,0,0,0-.81-3,1.94,1.94,0,0,0-1.57-1,2,2,0,0,0-1.6,1,5.94,5.94,0,0,0,0,6,2.06,2.06,0,0,0,1.6,1.05,2,2,0,0,0,1.57-1.05A5.48,5.48,0,0,0,223.66,238.55Z" style="fill:#dbdbdb"></path><path d="M198.81,222.08a7.28,7.28,0,0,1,1.15-4,3.56,3.56,0,0,1,6.27,0,7.77,7.77,0,0,1,0,8.07,3.55,3.55,0,0,1-6.27,0A7.32,7.32,0,0,1,198.81,222.08Zm6.67,0a5.56,5.56,0,0,0-.81-3,1.94,1.94,0,0,0-1.57-1,2,2,0,0,0-1.6,1,5.64,5.64,0,0,0-.81,3,5.51,5.51,0,0,0,.81,3,2.06,2.06,0,0,0,1.6,1.05,2,2,0,0,0,1.57-1.05A5.42,5.42,0,0,0,205.48,222.08Z" style="fill:#dbdbdb"></path><path d="M183.58,217.09v10a1,1,0,0,1-1,.93.92.92,0,0,1-.93-.93v-8.31l-.67.39a.84.84,0,0,1-.47.13.94.94,0,0,1-.49-1.74l2.07-1.23s.05,0,.07,0,0,0,.09-.05l.1,0s0,0,.06,0h.38s.06,0,.1,0H183c.05,0,.07.05.11.05a.1.1,0,0,0,.06.05l.07.06s0,.05.07.06l.05.07.07.07v0s0,0,0,0a.16.16,0,0,1,0,.09s0,.06,0,.08,0,.07,0,.09,0,.08,0,.11Z" style="fill:#dbdbdb"></path><path d="M214.29,217.09v10a1,1,0,0,1-.95.93.92.92,0,0,1-.93-.93v-8.31l-.67.39a.84.84,0,0,1-.47.13.94.94,0,0,1-.49-1.74l2.07-1.23s.05,0,.07,0,.05,0,.08-.05l.11,0s0,0,.06,0h.37c.06,0,.07,0,.11,0h.06s.07.05.1.05a.18.18,0,0,0,.07.05l.07.06s.05.05.07.06l0,.07.07.07v0s0,0,0,0a.16.16,0,0,1,0,.09s0,.06,0,.08,0,.07,0,.09,0,.08,0,.11Z" style="fill:#c7c7c7"></path><path d="M187.6,205a7.2,7.2,0,0,1,1.15-4,3.55,3.55,0,0,1,6.26,0,7.77,7.77,0,0,1,0,8.07,3.55,3.55,0,0,1-6.26,0A7.24,7.24,0,0,1,187.6,205Zm6.67,0a5.64,5.64,0,0,0-.81-3,2,2,0,0,0-1.57-1,2,2,0,0,0-1.61,1,5.64,5.64,0,0,0-.81,3,5.51,5.51,0,0,0,.81,3,2.06,2.06,0,0,0,1.61,1.05,2,2,0,0,0,1.57-1.05A5.51,5.51,0,0,0,194.27,205Z" style="fill:#c7c7c7"></path><path d="M206.05,205a7.28,7.28,0,0,1,1.15-4,3.56,3.56,0,0,1,6.27,0,7.77,7.77,0,0,1,0,8.07,3.55,3.55,0,0,1-6.27,0A7.32,7.32,0,0,1,206.05,205Zm6.67,0a5.64,5.64,0,0,0-.81-3,1.94,1.94,0,0,0-1.57-1,2,2,0,0,0-1.6,1,5.56,5.56,0,0,0-.81,3,5.42,5.42,0,0,0,.81,3,2,2,0,0,0,1.6,1.05,2,2,0,0,0,1.57-1.05A5.51,5.51,0,0,0,212.72,205Z" style="fill:#dbdbdb"></path><path d="M183.58,200.05v10a1,1,0,0,1-1,.93.92.92,0,0,1-.93-.93V201.7l-.67.39a.84.84,0,0,1-.47.13.94.94,0,0,1-.49-1.74l2.07-1.23s.05,0,.07,0,0,0,.09-.05l.1,0s0,0,.06,0h.38s.06,0,.1,0H183c.05,0,.07,0,.11,0a.1.1,0,0,0,.06.05l.07.06s0,0,.07.06l.05.07.07.07v0s0,0,0,.05a.16.16,0,0,1,0,.09s0,.06,0,.08,0,.07,0,.09,0,.08,0,.11Z" style="fill:#dbdbdb"></path><path d="M202.18,200.05v10a1,1,0,0,1-1,.93.92.92,0,0,1-.93-.93V201.7l-.67.39a.84.84,0,0,1-.47.13.94.94,0,0,1-.49-1.74l2.07-1.23s0,0,.07,0,.05,0,.09-.05l.1,0s.05,0,.06,0h.38c.05,0,.06,0,.1,0h.06c.05,0,.07,0,.11,0a.1.1,0,0,0,.06.05l.07.06s0,0,.07.06l.05.07.07.07v0s0,0,0,.05a.16.16,0,0,1,0,.09s0,.06,0,.08,0,.07,0,.09,0,.08,0,.11Z" style="fill:#dbdbdb"></path><path d="M187.6,272.31a7.22,7.22,0,0,1,1.15-4,3.55,3.55,0,0,1,6.26,0,7.79,7.79,0,0,1,0,8.08,3.55,3.55,0,0,1-6.26,0A7.27,7.27,0,0,1,187.6,272.31Zm6.67,0a5.64,5.64,0,0,0-.81-3,2,2,0,0,0-1.57-1,2.05,2.05,0,0,0-1.61,1,5.64,5.64,0,0,0-.81,3,5.57,5.57,0,0,0,.81,3,2.08,2.08,0,0,0,1.61,1.05,2,2,0,0,0,1.57-1.05A5.57,5.57,0,0,0,194.27,272.31Z" style="fill:#dbdbdb"></path><path d="M206.05,272.31a7.3,7.3,0,0,1,1.15-4,3.56,3.56,0,0,1,6.27,0,7.79,7.79,0,0,1,0,8.08,3.56,3.56,0,0,1-6.27,0A7.35,7.35,0,0,1,206.05,272.31Zm6.67,0a5.64,5.64,0,0,0-.81-3,2,2,0,0,0-1.57-1,2,2,0,0,0-1.6,1,5.56,5.56,0,0,0-.81,3,5.48,5.48,0,0,0,.81,3,2.07,2.07,0,0,0,1.6,1.05,2,2,0,0,0,1.57-1.05A5.57,5.57,0,0,0,212.72,272.31Z" style="fill:#dbdbdb"></path><path d="M202.18,267.33v10a1,1,0,0,1-1,.93.92.92,0,0,1-.93-.93V269l-.67.39a.85.85,0,0,1-.47.14.95.95,0,0,1-.49-1.74l2.07-1.24s0,0,.07,0,.05,0,.09-.05l.1,0h.06a.27.27,0,0,1,.12,0h.19s0,0,.07,0a.17.17,0,0,1,.1,0s.05,0,.06,0,.07,0,.11,0l.06.05.07.05.07.07.05.06.07.07v0s0,0,0,.05a.13.13,0,0,1,0,.08s0,.07,0,.08,0,.07,0,.09a.14.14,0,0,0,0,.12Z" style="fill:#dbdbdb"></path><path d="M220.85,267.33v10a1,1,0,0,1-.95.93.91.91,0,0,1-.92-.93V269l-.68.39a.85.85,0,0,1-.47.14.91.91,0,0,1-.8-.48.9.9,0,0,1,.31-1.26l2.07-1.24s.05,0,.07,0,.05,0,.09-.05l.1,0h.06a.27.27,0,0,1,.12,0H220a.1.1,0,0,0,.07,0,.17.17,0,0,1,.1,0,.1.1,0,0,1,.07,0c.05,0,.06,0,.1,0l.06.05a.18.18,0,0,1,.07.05s.05.05.07.07,0,0,0,.06l.07.07v0s0,0,0,.05,0,0,0,.08,0,.07,0,.08a.64.64,0,0,0,0,.09.17.17,0,0,0,0,.12Z" style="fill:#dbdbdb"></path><path d="M229.19,267.33v10a1,1,0,0,1-.95.93.92.92,0,0,1-.93-.93V269l-.67.39a.85.85,0,0,1-.47.14.91.91,0,0,1-.8-.48.9.9,0,0,1,.31-1.26l2.07-1.24s.05,0,.07,0,.05,0,.09-.05l.1,0h.06a.27.27,0,0,1,.12,0h.19a.1.1,0,0,0,.07,0,.17.17,0,0,1,.1,0s0,0,.06,0,.07,0,.11,0l.06.05.07.05.07.07s0,0,.05.06l.07.07v0s0,0,0,.05a.13.13,0,0,1,0,.08s0,.07,0,.08,0,.07,0,.09a.14.14,0,0,0,0,.12Z" style="fill:#dbdbdb"></path><path d="M193.44,182.58v10a1,1,0,0,1-.95.93.92.92,0,0,1-.93-.93v-8.31l-.67.39a.89.89,0,0,1-.48.13.95.95,0,0,1-.49-1.74l2.08-1.23s.05,0,.07,0,.05,0,.08-.05l.1,0a.1.1,0,0,1,.07,0h.37a.15.15,0,0,1,.1,0h.07s.07,0,.1,0l.07.06.07.05s.05,0,.07.06l.05.07.06.07,0,0s0,0,0,.05,0,0,0,.09,0,.07,0,.08a.64.64,0,0,0,0,.09c0,.05,0,.08,0,.11Z" style="fill:#dbdbdb"></path><path d="M202.18,182.58v10a1,1,0,0,1-1,.93.92.92,0,0,1-.93-.93v-8.31l-.67.39a.84.84,0,0,1-.47.13.94.94,0,0,1-.49-1.74l2.07-1.23s0,0,.07,0,.05,0,.09-.05l.1,0s.05,0,.06,0h.38c.05,0,.06,0,.1,0h.06c.05,0,.07,0,.11,0a.17.17,0,0,0,.06.06l.07.05s0,0,.07.06l.05.07.07.07v0s0,0,0,.05a.16.16,0,0,1,0,.09s0,.07,0,.08,0,.07,0,.09,0,.08,0,.11Z" style="fill:#c7c7c7"></path><path d="M221.45,200.05v10a.94.94,0,0,1-.94.93.92.92,0,0,1-.93-.93V201.7l-.68.39a.84.84,0,0,1-.47.13.95.95,0,0,1-.49-1.74l2.08-1.23s0,0,.06,0,.06,0,.09-.05l.1,0a.1.1,0,0,1,.07,0h.37a.15.15,0,0,1,.1,0h.07c.05,0,.07,0,.1,0a.13.13,0,0,0,.07.05s0,0,.06.06,0,0,.07.06a.18.18,0,0,1,0,.07l.07.07,0,0a.43.43,0,0,0,0,.05s0,0,0,.09,0,.06,0,.08a.64.64,0,0,0,0,.09c0,.05,0,.08,0,.11Z" style="fill:#c7c7c7"></path><path d="M230.2,200.05v10a1,1,0,0,1-.95.93.92.92,0,0,1-.93-.93V201.7l-.67.39a.89.89,0,0,1-.48.13.95.95,0,0,1-.49-1.74l2.08-1.23s.05,0,.07,0,0,0,.08-.05l.1,0a.1.1,0,0,1,.07,0h.37a.15.15,0,0,1,.1,0h.07s.07,0,.1,0a.18.18,0,0,0,.07.05l.07.06s0,0,.07.06l0,.07.06.07,0,0s0,0,0,.05,0,0,0,.09a.41.41,0,0,1,0,.08.64.64,0,0,0,0,.09c0,.05,0,.08,0,.11Z" style="fill:#dbdbdb"></path><path d="M210.92,182.58v10a.94.94,0,0,1-.94.93.92.92,0,0,1-.93-.93v-8.31l-.68.39a.84.84,0,0,1-.47.13.92.92,0,0,1-.8-.47.91.91,0,0,1,.31-1.27l2.08-1.23s0,0,.06,0,0,0,.09-.05l.1,0a.1.1,0,0,1,.07,0h.37a.15.15,0,0,1,.1,0h.07c.05,0,.06,0,.1,0a.22.22,0,0,0,.07.06s0,0,.06.05,0,0,.07.06l0,.07.07.07,0,0a.43.43,0,0,0,0,.05s0,0,0,.09,0,.07,0,.08a.64.64,0,0,0,0,.09c0,.05,0,.08,0,.11Z" style="fill:#c7c7c7"></path><path d="M206.1,238.55a7.11,7.11,0,0,1,1.15-4,3.55,3.55,0,0,1,6.26,0,7.77,7.77,0,0,1,0,8.07,3.55,3.55,0,0,1-6.26,0A7.17,7.17,0,0,1,206.1,238.55Zm6.67,0a5.61,5.61,0,0,0-.81-3,2,2,0,0,0-1.57-1,2,2,0,0,0-1.61,1,5.94,5.94,0,0,0,0,6,2.06,2.06,0,0,0,1.61,1.05,2,2,0,0,0,1.57-1.05A5.57,5.57,0,0,0,212.77,238.55Z" style="fill:#c7c7c7"></path><path d="M193.68,233.57v10a.94.94,0,0,1-1,.93.92.92,0,0,1-.93-.93v-8.3l-.67.38a.78.78,0,0,1-.47.14.92.92,0,0,1-.8-.47.91.91,0,0,1,.31-1.27l2.07-1.23.07,0s.05,0,.09-.05h.1s.05,0,.06,0a.27.27,0,0,1,.12,0h.19a.1.1,0,0,0,.07,0c.05,0,.06,0,.1,0s.05,0,.06,0,.07,0,.11,0,0,0,.06.05l.07.05a.46.46,0,0,1,.07.07.21.21,0,0,1,.05.07l.07.06v0s0,0,0,.05a.13.13,0,0,1,0,.08s0,.07,0,.09,0,.07,0,.08,0,.09,0,.12Z" style="fill:#dbdbdb"></path><path d="M202.42,233.57v10a.94.94,0,0,1-.94.93.91.91,0,0,1-.93-.93v-8.3l-.68.38a.78.78,0,0,1-.47.14.95.95,0,0,1-.49-1.74l2.08-1.23s0,0,.06,0,0,0,.09-.05h.1a.1.1,0,0,1,.07,0,.23.23,0,0,1,.12,0h.18a.1.1,0,0,0,.07,0,.24.24,0,0,1,.1,0,.1.1,0,0,1,.07,0c.05,0,.07,0,.1,0l.07.05s0,0,.06.05,0,0,.07.07a.13.13,0,0,1,0,.07l.07.06,0,0s0,0,0,.05,0,0,0,.08,0,.07,0,.09a.45.45,0,0,0,0,.08.16.16,0,0,0,0,.12Z" style="fill:#dbdbdb"></path><path d="M202.42,250.68v10a.94.94,0,0,1-.94.93.91.91,0,0,1-.93-.93v-8.3l-.68.38a.78.78,0,0,1-.47.14.95.95,0,0,1-.49-1.74l2.08-1.23s0,0,.06,0,0,0,.09,0h.1a.1.1,0,0,1,.07,0,.23.23,0,0,1,.12,0h.18a.1.1,0,0,0,.07,0,.24.24,0,0,1,.1,0,.1.1,0,0,1,.07,0c.05,0,.07.05.1.05l.07,0s0,0,.06.05,0,.05.07.07a.13.13,0,0,1,0,.07l.07.06,0,0s0,0,0,0,0,.05,0,.08,0,.07,0,.09a.45.45,0,0,0,0,.08.16.16,0,0,0,0,.12Z" style="fill:#dbdbdb"></path><path d="M177.14,324a7.25,7.25,0,0,1,1.15-4,3.55,3.55,0,0,1,6.26,0,7.79,7.79,0,0,1,0,8.08,3.55,3.55,0,0,1-6.26,0A7.25,7.25,0,0,1,177.14,324Zm6.67,0a5.58,5.58,0,0,0-.81-3,2,2,0,0,0-1.57-1,2.07,2.07,0,0,0-1.61,1,5.94,5.94,0,0,0,0,6,2.06,2.06,0,0,0,1.61,1.05A2,2,0,0,0,183,327,5.57,5.57,0,0,0,183.81,324Z" style="fill:#c7c7c7"></path><path d="M173.12,319v10a.94.94,0,0,1-1,.93.92.92,0,0,1-.93-.93v-8.31l-.67.39a.85.85,0,0,1-.47.14.92.92,0,0,1-.8-.47.91.91,0,0,1,.31-1.27l2.07-1.23.07,0s.05,0,.09-.05h.1s.05,0,.06,0a.27.27,0,0,1,.12,0h.19a.1.1,0,0,0,.07,0c.05,0,.06,0,.1,0s.05,0,.06,0,.07.05.11.05,0,0,.06.05l.07,0,.07.07s0,0,.05.07l.07.06v0s0,0,0,.05a.13.13,0,0,1,0,.08s0,.07,0,.09,0,.06,0,.08,0,.09,0,.12Z" style="fill:#dbdbdb"></path><path d="M176.86,290.38a7.27,7.27,0,0,1,1.15-4,3.55,3.55,0,0,1,6.26,0,7.71,7.71,0,0,1,0,8.07,3.55,3.55,0,0,1-6.26,0A7.33,7.33,0,0,1,176.86,290.38Zm6.67,0a5.61,5.61,0,0,0-.81-3,2,2,0,0,0-1.57-1,2,2,0,0,0-1.6,1,5.94,5.94,0,0,0,0,6,2,2,0,0,0,1.6,1.05,2,2,0,0,0,1.57-1.05A5.57,5.57,0,0,0,183.53,290.38Z" style="fill:#c7c7c7"></path><path d="M188.08,290.38a7.11,7.11,0,0,1,1.15-4,3.55,3.55,0,0,1,6.26,0,7.77,7.77,0,0,1,0,8.07,3.55,3.55,0,0,1-6.26,0A7.17,7.17,0,0,1,188.08,290.38Zm6.67,0a5.61,5.61,0,0,0-.81-3,2,2,0,0,0-1.57-1,2,2,0,0,0-1.61,1,5.94,5.94,0,0,0,0,6,2.06,2.06,0,0,0,1.61,1.05,2,2,0,0,0,1.57-1.05A5.57,5.57,0,0,0,194.75,290.38Z" style="fill:#dbdbdb"></path><path d="M172.84,285.4v10a.93.93,0,0,1-.94.92.91.91,0,0,1-.93-.92v-8.31l-.68.39a.84.84,0,0,1-.47.13.95.95,0,0,1-.49-1.74l2.08-1.23s.05,0,.06,0,.05,0,.09-.06h.1a.1.1,0,0,1,.07,0,.23.23,0,0,1,.12,0H172a.1.1,0,0,0,.07,0,.24.24,0,0,1,.1,0,.1.1,0,0,1,.07,0s.07,0,.1,0a.13.13,0,0,0,.07.05s.05,0,.06.05.05.05.07.07a.13.13,0,0,1,.05.07l.07.07,0,0s0,0,0,.05a.15.15,0,0,1,0,.09s0,.06,0,.08a.45.45,0,0,0,0,.08c0,.06,0,.09,0,.12Z" style="fill:#dbdbdb"></path><path d="M195.36,306.86a7.33,7.33,0,0,1,1.15-4,3.55,3.55,0,0,1,6.26,0,7.79,7.79,0,0,1,0,8.08,3.55,3.55,0,0,1-6.26,0A7.33,7.33,0,0,1,195.36,306.86Zm6.67,0a5.58,5.58,0,0,0-.81-3,2,2,0,0,0-1.57-1,2.05,2.05,0,0,0-1.6,1,5.88,5.88,0,0,0,0,6,2.07,2.07,0,0,0,1.6,1,2,2,0,0,0,1.57-1A5.57,5.57,0,0,0,202,306.86Z" style="fill:#dbdbdb"></path><path d="M182.94,301.88v10a.94.94,0,0,1-.94.93.92.92,0,0,1-.93-.93v-8.31l-.68.39a.85.85,0,0,1-.47.14.95.95,0,0,1-.49-1.74l2.08-1.23s.05,0,.06,0,.06,0,.09-.05h.1a.1.1,0,0,1,.07,0,.23.23,0,0,1,.12,0h.18a.1.1,0,0,0,.07,0,.24.24,0,0,1,.1,0,.1.1,0,0,1,.07,0s.07.05.1.05l.07.05s.05,0,.06.05a.15.15,0,0,1,.07.07.1.1,0,0,1,.05.07l.07.06,0,0a.43.43,0,0,1,0,0s0,.05,0,.08,0,.07,0,.09,0,.06,0,.08a.17.17,0,0,0,0,.12Z" style="fill:#dbdbdb"></path><path d="M191.69,301.88v10a1,1,0,0,1-.95.93.92.92,0,0,1-.93-.93v-8.31l-.67.39a.91.91,0,0,1-.48.14.95.95,0,0,1-.49-1.74l2.08-1.23.07,0s.05,0,.08-.05h.1a.1.1,0,0,1,.07,0,.23.23,0,0,1,.12,0h.19s.05,0,.06,0a.24.24,0,0,1,.1,0,.1.1,0,0,1,.07,0s.07.05.1.05l.07.05.07.05a.46.46,0,0,1,.07.07.25.25,0,0,1,.05.07l.06.06,0,0s0,0,0,0,0,.05,0,.08a.92.92,0,0,1,0,.09s0,.06,0,.08a.14.14,0,0,0,0,.12Z" style="fill:#c7c7c7"></path><path d="M191.69,319v10a.94.94,0,0,1-.95.93.92.92,0,0,1-.93-.93v-8.31l-.67.39a.91.91,0,0,1-.48.14.95.95,0,0,1-.49-1.74l2.08-1.23.07,0s.05,0,.08-.05l.1,0h.07a.23.23,0,0,1,.12,0h.19s.05,0,.06,0a.15.15,0,0,1,.1,0,.1.1,0,0,1,.07,0s.07.05.1.05l.07.05.07,0,.07.07a.25.25,0,0,1,.05.07l.06.06,0,0s0,0,0,.05,0,.05,0,.08a.92.92,0,0,1,0,.09s0,.06,0,.08a.14.14,0,0,0,0,.12Z" style="fill:#dbdbdb"></path><path d="M204.47,154a7.27,7.27,0,0,1,1.15-4,3.55,3.55,0,0,1,6.26,0,7.71,7.71,0,0,1,0,8.07,3.55,3.55,0,0,1-6.26,0A7.33,7.33,0,0,1,204.47,154Zm6.67,0a5.61,5.61,0,0,0-.81-3,2,2,0,0,0-1.57-1,2,2,0,0,0-1.6,1,5.94,5.94,0,0,0,0,6,2,2,0,0,0,1.6,1,2,2,0,0,0,1.57-1A5.57,5.57,0,0,0,211.14,154Z" style="fill:#dbdbdb"></path><path d="M192.05,149.05v10a.94.94,0,0,1-.94.93.91.91,0,0,1-.93-.93v-8.3l-.68.39a.84.84,0,0,1-.47.13.95.95,0,0,1-.49-1.74l2.08-1.23s0,0,.07,0,.05,0,.08-.05h.1a.1.1,0,0,1,.07,0,.23.23,0,0,1,.12,0h.18a.1.1,0,0,0,.07,0,.24.24,0,0,1,.1,0,.1.1,0,0,1,.07,0c.05,0,.07.05.1.05a.13.13,0,0,0,.07,0l.07.05a.19.19,0,0,1,.06.07.13.13,0,0,1,.05.07l.07.07,0,0s0,0,0,0,0,.05,0,.08a.92.92,0,0,1,0,.09.45.45,0,0,0,0,.08.16.16,0,0,0,0,.12Z" style="fill:#dbdbdb"></path><path d="M200.8,149.05v10a.94.94,0,0,1-1,.93.92.92,0,0,1-.93-.93v-8.3l-.67.39a.87.87,0,0,1-.48.13.95.95,0,0,1-.49-1.74l2.08-1.23.07,0s0,0,.08-.05h.1a.1.1,0,0,1,.07,0,.27.27,0,0,1,.12,0H200s0,0,.06,0a.24.24,0,0,1,.1,0s.06,0,.07,0,.07.05.1.05a.18.18,0,0,0,.07,0l.07.05.07.07a.68.68,0,0,1,.05.07l.06.07,0,0s0,0,0,0,0,.05,0,.08,0,.07,0,.09,0,.07,0,.08,0,.09,0,.12Z" style="fill:#c7c7c7"></path><path d="M200.8,133.19v10a1,1,0,0,1-1,.93.92.92,0,0,1-.93-.93v-8.31l-.67.39a.88.88,0,0,1-.48.14.95.95,0,0,1-.49-1.74l2.08-1.24s0,0,.07,0,0,0,.08-.05l.1,0h.07a.27.27,0,0,1,.12,0H200s0,0,.06,0a.15.15,0,0,1,.1,0s.06,0,.07,0,.07,0,.1,0l.07.05.07,0,.07.07.05.06.06.07,0,0s0,0,0,.05,0,0,0,.08,0,.07,0,.08,0,.07,0,.09a.14.14,0,0,0,0,.12Z" style="fill:#dbdbdb"></path><path d="M269.8,296.06a7.3,7.3,0,0,1,1.15-4,3.56,3.56,0,0,1,6.27,0,7.77,7.77,0,0,1,0,8.07,3.55,3.55,0,0,1-6.27,0A7.32,7.32,0,0,1,269.8,296.06Zm6.67,0a5.56,5.56,0,0,0-.81-3,2,2,0,0,0-1.57-1,2.05,2.05,0,0,0-1.6,1,5.64,5.64,0,0,0-.81,3,5.57,5.57,0,0,0,.81,3,2.07,2.07,0,0,0,1.6,1,2,2,0,0,0,1.57-1A5.48,5.48,0,0,0,276.47,296.06Z" style="fill:#dbdbdb"></path><path d="M289.6,296.06a7.14,7.14,0,0,1,1.15-4,3.55,3.55,0,0,1,6.26,0,7.77,7.77,0,0,1,0,8.07,3.55,3.55,0,0,1-6.26,0A7.16,7.16,0,0,1,289.6,296.06Zm6.67,0a5.64,5.64,0,0,0-.81-3,2,2,0,0,0-1.57-1,2.05,2.05,0,0,0-1.61,1,5.64,5.64,0,0,0-.81,3,5.57,5.57,0,0,0,.81,3,2.07,2.07,0,0,0,1.61,1,2,2,0,0,0,1.57-1A5.57,5.57,0,0,0,296.27,296.06Z" style="fill:#dbdbdb"></path><path d="M280.39,313.34a7.25,7.25,0,0,1,1.15-4,3.55,3.55,0,0,1,6.26,0,7.79,7.79,0,0,1,0,8.08,3.55,3.55,0,0,1-6.26,0A7.25,7.25,0,0,1,280.39,313.34Zm6.67,0a5.58,5.58,0,0,0-.81-3,2,2,0,0,0-1.57-1,2.07,2.07,0,0,0-1.61,1,5.94,5.94,0,0,0,0,6,2.08,2.08,0,0,0,1.61,1.05,2,2,0,0,0,1.57-1.05A5.57,5.57,0,0,0,287.06,313.34Z" style="fill:#c7c7c7"></path><path d="M316.6,313.34a7.24,7.24,0,0,1,1.14-4,3.56,3.56,0,0,1,6.27,0,7.79,7.79,0,0,1,0,8.08,3.56,3.56,0,0,1-6.27,0A7.24,7.24,0,0,1,316.6,313.34Zm6.66,0a5.49,5.49,0,0,0-.81-3,2,2,0,0,0-1.57-1,2.07,2.07,0,0,0-1.6,1,5.94,5.94,0,0,0,0,6,2.08,2.08,0,0,0,1.6,1.05,2,2,0,0,0,1.57-1.05A5.48,5.48,0,0,0,323.26,313.34Z" style="fill:#c7c7c7"></path><path d="M300.68,296.06a7.14,7.14,0,0,1,1.15-4,3.55,3.55,0,0,1,6.26,0,7.77,7.77,0,0,1,0,8.07,3.55,3.55,0,0,1-6.26,0A7.16,7.16,0,0,1,300.68,296.06Zm6.67,0a5.64,5.64,0,0,0-.81-3,2,2,0,0,0-1.57-1,2.05,2.05,0,0,0-1.61,1,5.64,5.64,0,0,0-.81,3,5.57,5.57,0,0,0,.81,3,2.07,2.07,0,0,0,1.61,1,2,2,0,0,0,1.57-1A5.57,5.57,0,0,0,307.35,296.06Z" style="fill:#dbdbdb"></path><path d="M285.58,291.08v10a1,1,0,0,1-.95.93.92.92,0,0,1-.93-.93v-8.31l-.67.39a.86.86,0,0,1-.48.14.95.95,0,0,1-.48-1.74l2.07-1.24s.05,0,.07,0,.05,0,.08-.05l.1,0h.07a.27.27,0,0,1,.12,0h.19s.05,0,.06,0a.2.2,0,0,1,.11,0s.05,0,.06,0,.07,0,.1,0l.07.05.07.05s.05.05.07.07l.05.06.07.07v0s0,0,0,.06a.13.13,0,0,1,0,.08s0,.07,0,.08,0,.07,0,.09a.14.14,0,0,0,0,.12Z" style="fill:#c7c7c7"></path><path d="M289.87,381.45a7.28,7.28,0,0,1,1.15-4,3.56,3.56,0,0,1,6.27,0,7.77,7.77,0,0,1,0,8.07,3.55,3.55,0,0,1-6.27,0A7.32,7.32,0,0,1,289.87,381.45Zm6.67,0a5.56,5.56,0,0,0-.81-3,1.94,1.94,0,0,0-1.57-1,2,2,0,0,0-1.6,1,5.64,5.64,0,0,0-.81,3,5.57,5.57,0,0,0,.81,3,2.07,2.07,0,0,0,1.6,1,2,2,0,0,0,1.57-1A5.48,5.48,0,0,0,296.54,381.45Z" style="fill:#c7c7c7"></path><path d="M285.85,376.47v10a.94.94,0,0,1-.94.93.92.92,0,0,1-.93-.93v-8.31l-.68.39a.84.84,0,0,1-.47.13.88.88,0,0,1-.79-.47.9.9,0,0,1,.3-1.27l2.08-1.23s.05,0,.07,0,.05,0,.08-.05l.1,0a.1.1,0,0,1,.07,0h.37a.15.15,0,0,1,.1,0h.07c.05,0,.07.06.1.06l.07,0,.07.05s.05.05.06.06a.18.18,0,0,1,.05.07l.07.07,0,0s0,0,0,.05,0,0,0,.09,0,.07,0,.08a.64.64,0,0,0,0,.09.17.17,0,0,0,0,.12Z" style="fill:#dbdbdb"></path><path d="M269.8,347.86a7.3,7.3,0,0,1,1.15-4,3.56,3.56,0,0,1,6.27,0,7.79,7.79,0,0,1,0,8.08,3.56,3.56,0,0,1-6.27,0A7.33,7.33,0,0,1,269.8,347.86Zm6.67,0a5.56,5.56,0,0,0-.81-3,2,2,0,0,0-1.57-1,2.08,2.08,0,0,0-1.6,1,5.64,5.64,0,0,0-.81,3,5.57,5.57,0,0,0,.81,3,2.08,2.08,0,0,0,1.6,1,2,2,0,0,0,1.57-1A5.48,5.48,0,0,0,276.47,347.86Z" style="fill:#dbdbdb"></path><path d="M289.6,347.86a7.14,7.14,0,0,1,1.15-4,3.55,3.55,0,0,1,6.26,0,7.79,7.79,0,0,1,0,8.08,3.55,3.55,0,0,1-6.26,0A7.17,7.17,0,0,1,289.6,347.86Zm6.67,0a5.64,5.64,0,0,0-.81-3,2,2,0,0,0-1.57-1,2.08,2.08,0,0,0-1.61,1,5.64,5.64,0,0,0-.81,3,5.57,5.57,0,0,0,.81,3,2.08,2.08,0,0,0,1.61,1,2,2,0,0,0,1.57-1A5.57,5.57,0,0,0,296.27,347.86Z" style="fill:#dbdbdb"></path><path d="M300.81,347.86a7.3,7.3,0,0,1,1.15-4,3.56,3.56,0,0,1,6.27,0,7.79,7.79,0,0,1,0,8.08,3.56,3.56,0,0,1-6.27,0A7.33,7.33,0,0,1,300.81,347.86Zm6.67,0a5.56,5.56,0,0,0-.81-3,2,2,0,0,0-1.57-1,2.06,2.06,0,0,0-1.6,1,5.64,5.64,0,0,0-.81,3,5.57,5.57,0,0,0,.81,3,2.07,2.07,0,0,0,1.6,1,2,2,0,0,0,1.57-1A5.48,5.48,0,0,0,307.48,347.86Z" style="fill:#c7c7c7"></path><path d="M285.58,342.88v10a1,1,0,0,1-.95.93.92.92,0,0,1-.93-.93v-8.31l-.67.39a.86.86,0,0,1-.48.14.95.95,0,0,1-.48-1.74l2.07-1.24s.05,0,.07,0,.05,0,.08-.05l.1,0h.07a.27.27,0,0,1,.12,0h.19s.05,0,.06,0a.2.2,0,0,1,.11,0s.05,0,.06,0,.07.05.1.05l.07.05.07.05.07.07.05.06.07.07v0s0,0,0,0a.13.13,0,0,1,0,.08s0,.07,0,.08,0,.07,0,.09a.14.14,0,0,0,0,.12Z" style="fill:#c7c7c7"></path><path d="M289.6,330.81a7.14,7.14,0,0,1,1.15-4,3.55,3.55,0,0,1,6.26,0,7.79,7.79,0,0,1,0,8.08,3.55,3.55,0,0,1-6.26,0A7.17,7.17,0,0,1,289.6,330.81Zm6.67,0a5.58,5.58,0,0,0-.81-3,2,2,0,0,0-1.57-1,2.07,2.07,0,0,0-1.61,1,5.94,5.94,0,0,0,0,6,2.08,2.08,0,0,0,1.61,1.05,2,2,0,0,0,1.57-1.05A5.57,5.57,0,0,0,296.27,330.81Z" style="fill:#dbdbdb"></path><path d="M308.05,330.81a7.3,7.3,0,0,1,1.15-4,3.55,3.55,0,0,1,6.26,0,7.73,7.73,0,0,1,0,8.08,3.55,3.55,0,0,1-6.26,0A7.33,7.33,0,0,1,308.05,330.81Zm6.67,0a5.58,5.58,0,0,0-.81-3,2,2,0,0,0-1.57-1,2.05,2.05,0,0,0-1.6,1,5.94,5.94,0,0,0,0,6,2.07,2.07,0,0,0,1.6,1.05,2,2,0,0,0,1.57-1.05A5.57,5.57,0,0,0,314.72,330.81Z" style="fill:#c7c7c7"></path><path d="M285.58,325.83v10a1,1,0,0,1-.95.93.92.92,0,0,1-.93-.93v-8.31l-.67.39a.86.86,0,0,1-.48.14.95.95,0,0,1-.48-1.74l2.07-1.24s.05,0,.07,0,.05,0,.08-.05l.1,0h.07a.27.27,0,0,1,.12,0h.19s.05,0,.06,0a.2.2,0,0,1,.11,0s.05,0,.06,0,.07,0,.1,0l.07.05.07.05.07.07.05.06.07.07v0s0,0,0,.05a.13.13,0,0,1,0,.08s0,.07,0,.09,0,.06,0,.08a.14.14,0,0,0,0,.12Z" style="fill:#c7c7c7"></path><path d="M304.18,325.83v10a1,1,0,0,1-.95.93.92.92,0,0,1-.93-.93v-8.31l-.67.39a.86.86,0,0,1-.48.14.95.95,0,0,1-.48-1.74l2.07-1.24s.05,0,.07,0,.05,0,.08-.05l.1,0h.07a.27.27,0,0,1,.12,0h.19s.05,0,.06,0a.2.2,0,0,1,.11,0s0,0,.06,0,.07,0,.1,0l.07.05.07.05a.46.46,0,0,1,.07.07l0,.06.07.07v0s0,0,0,.05a.13.13,0,0,1,0,.08s0,.07,0,.09,0,.06,0,.08a.14.14,0,0,0,0,.12Z" style="fill:#dbdbdb"></path><path d="M289.6,398.09a7.11,7.11,0,0,1,1.15-4,3.55,3.55,0,0,1,6.26,0,7.77,7.77,0,0,1,0,8.07,3.55,3.55,0,0,1-6.26,0A7.17,7.17,0,0,1,289.6,398.09Zm6.67,0a5.61,5.61,0,0,0-.81-3,2,2,0,0,0-1.57-1,2,2,0,0,0-1.61,1,5.94,5.94,0,0,0,0,6,2.06,2.06,0,0,0,1.61,1.05,2,2,0,0,0,1.57-1.05A5.57,5.57,0,0,0,296.27,398.09Z" style="fill:#dbdbdb"></path><path d="M308.05,398.09a7.27,7.27,0,0,1,1.15-4,3.55,3.55,0,0,1,6.26,0,7.71,7.71,0,0,1,0,8.07,3.55,3.55,0,0,1-6.26,0A7.33,7.33,0,0,1,308.05,398.09Zm6.67,0a5.61,5.61,0,0,0-.81-3,2,2,0,0,0-1.57-1,2,2,0,0,0-1.6,1,5.94,5.94,0,0,0,0,6,2,2,0,0,0,1.6,1.05,2,2,0,0,0,1.57-1.05A5.57,5.57,0,0,0,314.72,398.09Z" style="fill:#c7c7c7"></path><path d="M304.18,393.11v10a.94.94,0,0,1-.95.92.91.91,0,0,1-.93-.92v-8.31l-.67.39a.85.85,0,0,1-.48.13.94.94,0,0,1-.48-1.74l2.07-1.23s.05,0,.07,0,.05,0,.08-.06h.1a.11.11,0,0,1,.07,0,.27.27,0,0,1,.12,0h.19s.05,0,.06,0a.35.35,0,0,1,.11,0s0,0,.06,0,.07.05.1.05a.18.18,0,0,0,.07.05l.07,0,.07.07a.68.68,0,0,1,0,.07l.07.07v0s0,0,0,.05a.13.13,0,0,1,0,.08s0,.07,0,.09,0,.07,0,.08,0,.09,0,.12Z" style="fill:#c7c7c7"></path><path d="M322.85,393.11v10a.94.94,0,0,1-1,.92.91.91,0,0,1-.93-.92v-8.31l-.67.39a.84.84,0,0,1-.47.13.94.94,0,0,1-.49-1.74l2.07-1.23s0,0,.07,0,0,0,.09-.06h.1s.05,0,.06,0a.27.27,0,0,1,.12,0H322s0,0,.07,0,.06,0,.1,0,.05,0,.06,0,.07.05.11.05a.1.1,0,0,0,.06.05l.07,0,.07.07a.68.68,0,0,1,.05.07l.07.07v0s0,0,0,.05a.13.13,0,0,1,0,.08s0,.07,0,.09,0,.07,0,.08,0,.09,0,.12Z" style="fill:#dbdbdb"></path><path d="M331.19,393.11v10a.94.94,0,0,1-.95.92.91.91,0,0,1-.93-.92v-8.31l-.67.39a.84.84,0,0,1-.47.13.94.94,0,0,1-.49-1.74l2.07-1.23s.05,0,.07,0,.05,0,.08-.06H330s.05,0,.06,0a.27.27,0,0,1,.12,0h.19s.05,0,.06,0,.07,0,.11,0,.05,0,.06,0,.07.05.11.05a.1.1,0,0,0,.06.05l.07,0,.07.07a.68.68,0,0,1,.05.07l.07.07v0s0,0,0,.05a.13.13,0,0,1,0,.08s0,.07,0,.09,0,.07,0,.08,0,.09,0,.12Z" style="fill:#c7c7c7"></path><path d="M295.43,308.36v10a.94.94,0,0,1-.94.93.92.92,0,0,1-.93-.93V310l-.68.39a.85.85,0,0,1-.47.14.95.95,0,0,1-.49-1.74l2.08-1.23.07,0s.05,0,.08,0h.1a.1.1,0,0,1,.07,0,.23.23,0,0,1,.12,0h.18a.1.1,0,0,0,.07,0,.24.24,0,0,1,.1,0,.1.1,0,0,1,.07,0c.05,0,.07.05.1.05l.07.05.07,0a.19.19,0,0,1,.06.07.1.1,0,0,1,0,.07l.07.06,0,0s0,0,0,.05,0,.05,0,.08a.92.92,0,0,1,0,.09s0,.06,0,.08a.17.17,0,0,0,0,.12Z" style="fill:#dbdbdb"></path><path d="M304.18,308.36v10a1,1,0,0,1-.95.93.92.92,0,0,1-.93-.93V310l-.67.39a.86.86,0,0,1-.48.14.95.95,0,0,1-.48-1.74l2.07-1.23.07,0s.05,0,.08,0h.1a.11.11,0,0,1,.07,0,.27.27,0,0,1,.12,0h.19s.05,0,.06,0a.35.35,0,0,1,.11,0s0,0,.06,0,.07.05.1.05l.07.05.07,0,.07.07a.25.25,0,0,1,0,.07l.07.06v0s0,0,0,.05a.13.13,0,0,1,0,.08s0,.07,0,.09,0,.06,0,.08a.14.14,0,0,0,0,.12Z" style="fill:#c7c7c7"></path><path d="M323.45,325.83v10a.94.94,0,0,1-.94.93.92.92,0,0,1-.93-.93v-8.31l-.68.39a.85.85,0,0,1-.47.14.91.91,0,0,1-.8-.48.9.9,0,0,1,.31-1.26L322,325s.05,0,.06,0,.05,0,.09-.05l.1,0h.07a.22.22,0,0,1,.11,0h.19a.1.1,0,0,0,.07,0,.15.15,0,0,1,.1,0,.1.1,0,0,1,.07,0c.05,0,.06,0,.1,0l.07.05s.05,0,.06.05.05.05.07.07,0,0,.05.06a.46.46,0,0,0,.07.07l0,0a.43.43,0,0,1,0,.05s0,0,0,.08,0,.07,0,.09,0,.06,0,.08a.17.17,0,0,0,0,.12Z" style="fill:#dbdbdb"></path><path d="M332.19,325.83v10a.94.94,0,0,1-.94.93.92.92,0,0,1-.93-.93v-8.31l-.68.39a.85.85,0,0,1-.47.14.95.95,0,0,1-.49-1.74l2.08-1.24s.05,0,.07,0,.05,0,.08-.05l.1,0h.07a.23.23,0,0,1,.12,0h.18a.1.1,0,0,0,.07,0,.15.15,0,0,1,.1,0,.1.1,0,0,1,.07,0c.05,0,.07,0,.1,0l.07.05.07.05a.19.19,0,0,1,.06.07.1.1,0,0,1,.05.06.46.46,0,0,0,.07.07l0,0s0,0,0,.05,0,0,0,.08a.92.92,0,0,1,0,.09s0,.06,0,.08a.17.17,0,0,0,0,.12Z" style="fill:#dbdbdb"></path><path d="M312.92,308.36v10a1,1,0,0,1-.95.93.91.91,0,0,1-.92-.93V310l-.68.39a.85.85,0,0,1-.47.14.91.91,0,0,1-.8-.48.9.9,0,0,1,.31-1.26l2.07-1.23.07,0s.05,0,.09,0h.1s.05,0,.07,0a.22.22,0,0,1,.11,0h.19a.1.1,0,0,0,.07,0c.05,0,.06,0,.1,0a.1.1,0,0,1,.07,0s.06.05.1.05,0,0,.06.05.06,0,.07,0,.05.05.07.07,0,0,.05.07l.07.06v0s0,0,0,.05,0,.05,0,.08,0,.07,0,.09,0,.06,0,.08a.17.17,0,0,0,0,.12Z" style="fill:#dbdbdb"></path><path d="M308.1,364.34a7.19,7.19,0,0,1,1.14-4,3.56,3.56,0,0,1,6.27,0,7.77,7.77,0,0,1,0,8.07,3.55,3.55,0,0,1-6.27,0A7.23,7.23,0,0,1,308.1,364.34Zm6.67,0a5.64,5.64,0,0,0-.81-3,2,2,0,0,0-1.58-1,2,2,0,0,0-1.6,1,5.64,5.64,0,0,0-.81,3,5.51,5.51,0,0,0,.81,3,2.06,2.06,0,0,0,1.6,1.05,2,2,0,0,0,1.58-1.05A5.51,5.51,0,0,0,314.77,364.34Z" style="fill:#dbdbdb"></path><path d="M295.68,359.36v10a1,1,0,0,1-.95.93.92.92,0,0,1-.93-.93V361l-.67.39a.84.84,0,0,1-.47.13.94.94,0,0,1-.49-1.74l2.07-1.23s.05,0,.07,0,.05,0,.08,0l.11,0s.05,0,.06,0h.37c.06,0,.07,0,.11,0h.06s.07.05.1.05l.07.06.07,0s.05.05.07.06l0,.07.07.07v0s0,0,0,.05a.16.16,0,0,1,0,.09s0,.07,0,.08,0,.07,0,.09a.14.14,0,0,0,0,.12Z" style="fill:#dbdbdb"></path><path d="M304.42,359.36v10a1,1,0,0,1-.95.93.91.91,0,0,1-.92-.93V361l-.68.39a.84.84,0,0,1-.47.13.92.92,0,0,1-.8-.47.91.91,0,0,1,.31-1.27l2.08-1.23s.05,0,.06,0,.05,0,.09,0l.1,0a.1.1,0,0,1,.07,0h.37a.15.15,0,0,1,.1,0h.07s.06.05.1.05a.14.14,0,0,0,.07.06s.05,0,.06,0,.05.05.07.06l.05.07.07.07,0,0a.43.43,0,0,0,0,.05s0,.05,0,.09,0,.07,0,.08a.64.64,0,0,0,0,.09.17.17,0,0,0,0,.12Z" style="fill:#c7c7c7"></path><path d="M304.42,376.47v10a1,1,0,0,1-.95.93.91.91,0,0,1-.92-.93v-8.31l-.68.39a.84.84,0,0,1-.47.13.92.92,0,0,1-.8-.47.91.91,0,0,1,.31-1.27l2.08-1.23s.05,0,.06,0,.05,0,.09-.05l.1,0a.1.1,0,0,1,.07,0h.37a.15.15,0,0,1,.1,0h.07s.06,0,.1,0a.14.14,0,0,0,.07.06s.05,0,.06.05.05.05.07.06l.05.07.07.07,0,0a.43.43,0,0,0,0,.05s0,0,0,.09,0,.07,0,.08a.64.64,0,0,0,0,.09.17.17,0,0,0,0,.12Z" style="fill:#dbdbdb"></path></g><g id="freepik--Padlock--inject-167"><path d="M278,250c-.18,24.53-2.91,62.31-17.68,82.37-6.24,8-14.26,8.11-20.57,0-14.87-20-17.75-57.84-18-82.4.27-24.52,3.17-62.42,18-82.4,6.27-8,14.29-8.08,20.58,0,14.77,20,17.5,57.84,17.68,82.37Zm0,0c-.27-24.48-3.14-62.2-17.94-82.17-11-13.61-21.22-1.1-26.06,10.5-9.29,22.57-11.28,47.48-11.53,71.67.24,24.19,2.24,49.1,11.52,71.67,4.81,11.51,15,24.15,26.07,10.5,14.8-19.95,17.67-57.69,17.94-82.17Z" style="fill:#031C21"></path><path d="M264,225.79c20.87,12.34,41.48,26.54,56.42,45.92C334.74,291,328,302.92,304,300.21c-24.3-3.17-47-13.83-68.15-25.68-21.11-12.48-52.48-33.95-62.36-56.81-3.79-9.42.15-16.41,10.32-17.8,24.79-2.76,58.81,13.75,80.18,25.87Zm0,0c-21.38-12-55.4-28.37-80.13-25.55-17.31,2.76-11.57,17.83-3.95,27.83,14.91,19.33,35.48,33.5,56.31,45.81,21.07,11.89,43.64,22.62,67.83,25.86,23.53,2.74,30.3-8.65,16.13-27.86-14.84-19.41-35.38-33.68-56.19-46.09Z" style="fill:#031C21"></path><path d="M236,225.79c21.38-12.12,55.37-28.62,80.18-25.87,10.07,1.39,14.15,8.29,10.31,17.8-9.89,22.88-41.22,44.29-62.35,56.81C243,286.38,220.31,297,196,300.21c-23.82,2.7-30.87-9.07-16.41-28.5,14.94-19.38,35.55-33.58,56.42-45.92Zm0,0c-20.81,12.41-41.34,26.68-56.19,46.09-14,19-7.61,30.62,16.13,27.86,24.19-3.24,46.75-14,67.83-25.86,20.83-12.3,41.4-26.48,56.31-45.81,14.13-19,7.65-30.57-16.07-27.9-24.23,3.15-46.86,13.8-68,25.62Z" style="fill:#031C21"></path><path d="M278.53,222.57v30.79h-8.7V222.57c0-11.71-8.89-21.23-19.83-21.23s-19.83,9.52-19.83,21.23v30.79h-8.7V222.57c0-16.77,12.8-30.4,28.53-30.4S278.53,205.8,278.53,222.57Z" style="fill:#dbdbdb"></path><polygon points="221.47 230.58 230.17 230.93 230.17 253.36 221.47 253.36 221.47 230.58" style="fill:#a6a6a6"></polygon><polygon points="278.53 232.9 278.53 253.36 269.83 253.36 269.83 232.54 278.53 232.9" style="fill:#a6a6a6"></polygon><rect x="210.31" y="235.83" width="79.37" height="58.48" style="fill:#031C21"></rect><rect x="250" y="235.83" width="39.68" height="58.48" style="opacity:0.1"></rect><path d="M253,266.88l3,14.34H243.21l3-14.34a6.42,6.42,0,1,1,6.78,0Z" style="fill:#263238"></path><path d="M214.51,259.86a84.48,84.48,0,0,1-.7-20.53c4.28.15,8.55.36,12.83.78-4,.4-8.09.61-12.13.76l.75-.76c.13,1.65.2,3.29.22,4.94a78.13,78.13,0,0,1-1,14.81Z" style="fill:#fff"></path></g></svg>
