<svg xmlns="http://www.w3.org/2000/svg" viewBox="0 0 500 500"><g id="freepik--background-complete--inject-1"><rect y="382.4" width="500" height="0.25" style="fill:#ebebeb"></rect><path d="M237,337.8H43.91a5.71,5.71,0,0,1-5.7-5.71V60.66A5.71,5.71,0,0,1,43.91,55H237a5.71,5.71,0,0,1,5.71,5.71V332.09A5.71,5.71,0,0,1,237,337.8ZM43.91,55.2a5.46,5.46,0,0,0-5.45,5.46V332.09a5.46,5.46,0,0,0,5.45,5.46H237a5.47,5.47,0,0,0,5.46-5.46V60.66A5.47,5.47,0,0,0,237,55.2Z" style="fill:#ebebeb"></path><path d="M453.31,337.8H260.21a5.72,5.72,0,0,1-5.71-5.71V60.66A5.72,5.72,0,0,1,260.21,55h193.1A5.71,5.71,0,0,1,459,60.66V332.09A5.71,5.71,0,0,1,453.31,337.8ZM260.21,55.2a5.47,5.47,0,0,0-5.46,5.46V332.09a5.47,5.47,0,0,0,5.46,5.46h193.1a5.47,5.47,0,0,0,5.46-5.46V60.66a5.47,5.47,0,0,0-5.46-5.46Z" style="fill:#ebebeb"></path><rect x="418.33" y="391.92" width="31.57" height="0.25" style="fill:#ebebeb"></rect><rect x="301.93" y="389.21" width="33.41" height="0.25" style="fill:#ebebeb"></rect><rect x="396.59" y="401.21" width="62.43" height="0.25" style="fill:#ebebeb"></rect><rect x="52.46" y="399.53" width="19.23" height="0.25" style="fill:#ebebeb"></rect><rect x="80.6" y="399.53" width="30.29" height="0.25" style="fill:#ebebeb"></rect><rect x="189.58" y="395.31" width="54.56" height="0.25" style="fill:#ebebeb"></rect><rect x="265.98" y="273.74" width="173.76" height="43.56" transform="translate(648.38 -57.34) rotate(90)" style="fill:#f0f0f0"></rect><rect x="333.7" y="213.49" width="38.32" height="38.78" transform="translate(585.74 -119.99) rotate(90)" style="fill:#f5f5f5"></rect><path d="M361.45,213.21H344.28a4,4,0,0,0,4,4h9.22A4,4,0,0,0,361.45,213.21Z" style="fill:#e6e6e6"></path><rect x="333.7" y="255.25" width="38.32" height="38.78" transform="translate(627.5 -78.22) rotate(90)" style="fill:#f5f5f5"></rect><rect x="333.7" y="297.01" width="38.32" height="38.78" transform="translate(669.26 -36.46) rotate(90)" style="fill:#f5f5f5"></rect><rect x="333.7" y="338.78" width="38.32" height="38.78" transform="translate(711.03 5.3) rotate(90)" style="fill:#f5f5f5"></rect><path d="M361.45,255H344.28a4,4,0,0,0,4,4h9.22A4,4,0,0,0,361.45,255Z" style="fill:#e6e6e6"></path><path d="M361.45,296.73H344.28a4,4,0,0,0,4,4h9.22A4,4,0,0,0,361.45,296.73Z" style="fill:#e6e6e6"></path><path d="M361.45,338.49H344.28a4,4,0,0,0,4,4h9.22A4,4,0,0,0,361.45,338.49Z" style="fill:#e6e6e6"></path><rect x="298.64" y="284.64" width="173.76" height="21.76" transform="translate(681.04 -90) rotate(90)" style="fill:#f5f5f5"></rect><rect x="313.48" y="273.74" width="173.76" height="43.56" transform="translate(695.87 -104.83) rotate(90)" style="fill:#f0f0f0"></rect><rect x="381.19" y="213.49" width="38.32" height="38.78" transform="translate(633.23 -167.48) rotate(90)" style="fill:#f5f5f5"></rect><path d="M408.94,213.21H391.77a4,4,0,0,0,4,4H405A4,4,0,0,0,408.94,213.21Z" style="fill:#e6e6e6"></path><rect x="381.19" y="255.25" width="38.32" height="38.78" transform="translate(674.99 -125.72) rotate(90)" style="fill:#f5f5f5"></rect><rect x="381.19" y="297.01" width="38.32" height="38.78" transform="translate(716.76 -83.95) rotate(90)" style="fill:#f5f5f5"></rect><rect x="381.19" y="338.78" width="38.32" height="38.78" transform="translate(758.52 -42.19) rotate(90)" style="fill:#f5f5f5"></rect><path d="M408.94,255H391.77a4,4,0,0,0,4,4H405A4,4,0,0,0,408.94,255Z" style="fill:#e6e6e6"></path><path d="M408.94,296.73H391.77a4,4,0,0,0,4,4H405A4,4,0,0,0,408.94,296.73Z" style="fill:#e6e6e6"></path><path d="M408.94,338.49H391.77a4,4,0,0,0,4,4H405A4,4,0,0,0,408.94,338.49Z" style="fill:#e6e6e6"></path><rect x="346.13" y="284.64" width="173.76" height="21.76" transform="translate(728.53 -137.49) rotate(90)" style="fill:#f5f5f5"></rect><rect x="403.94" y="173.94" width="12.72" height="34.7" style="fill:#e0e0e0"></rect><polygon points="364 208.64 412.52 208.64 419.74 152.49 371.22 152.49 364 208.64" style="fill:#e6e6e6"></polygon><polygon points="358.46 208.64 411.28 208.64 418.51 152.49 365.68 152.49 358.46 208.64" style="fill:#f0f0f0"></polygon><polygon points="407.43 204.22 413.51 156.91 369.54 156.91 363.45 204.22 407.43 204.22" style="fill:#fff"></polygon><ellipse cx="388.48" cy="180.56" rx="12.85" ry="11.3" transform="translate(-18.41 314.58) rotate(-43.16)" style="fill:#e6e6e6"></ellipse><rect x="180.4" y="95.61" width="135.7" height="286.79" transform="translate(496.5 478.01) rotate(180)" style="fill:#e6e6e6"></rect><rect x="177.39" y="95.61" width="135.7" height="286.79" transform="translate(490.47 478.01) rotate(180)" style="fill:#f5f5f5"></rect><rect x="107.92" y="176.57" width="274.63" height="124.87" transform="translate(484.24 -6.23) rotate(90)" style="fill:#fff"></rect><rect x="46.62" y="237.86" width="274.63" height="2.28" transform="translate(422.94 55.07) rotate(90)" style="fill:#e6e6e6"></rect><rect x="179.62" y="182.6" width="131.22" height="8.16" transform="translate(490.47 373.36) rotate(180)" style="fill:#f5f5f5"></rect><rect x="135.11" y="252" width="18.91" height="122.63" transform="translate(289.13 626.63) rotate(180)" style="fill:#f0f0f0"></rect><rect x="57.12" y="374.63" width="93.27" height="7.77" transform="translate(207.51 757.03) rotate(180)" style="fill:#f0f0f0"></rect><rect x="53.49" y="252" width="81.62" height="122.63" style="fill:#f5f5f5"></rect><rect x="60.92" y="267.09" width="66.75" height="40.22" style="fill:#f0f0f0"></rect><rect x="60.92" y="319.32" width="66.75" height="40.22" style="fill:#f0f0f0"></rect><rect x="62.36" y="284.44" width="18.68" height="5.52" rx="2.26" transform="translate(358.9 215.51) rotate(90)" style="fill:#f5f5f5"></rect><rect x="62.36" y="336.67" width="18.68" height="5.52" rx="2.26" transform="translate(411.12 267.73) rotate(90)" style="fill:#f5f5f5"></rect><path d="M134.73,182.73c-2.11,1.06-7.86-.08-5.95,3.81a33,33,0,0,0,3.93,5.7c2.14,2.64,1.74,5.51-.79,6.55a3.12,3.12,0,0,0-1.4,1c-1.16,1.67,1.59,3.91,2.94,5.58s1.89,3.31.9,4.56-3.4.86-5.22,1.28c-4.39,1,.12,7-.34,10.15-.32,2.12-2.05,2.72-4.39,3-1.91.24-4.46.41-4.57,2.37-.09,1.7,2.12,3.62,2.7,5.4a5.57,5.57,0,0,1-.43,4.7,5.13,5.13,0,0,1-3.44,2.25c-2.17.46-5.45,0-5.61,2.43-.07,1.09.69,2.06.16,3.07a3.49,3.49,0,0,1-2.54,1.5,18.64,18.64,0,0,1-6.26-.11c-2.55-.47-6.31-2.72-4.93-4.88a2.94,2.94,0,0,1,2-1.13c.61-.13,2.39.06,2.62-.35s-.38-2-.41-2.58a12.24,12.24,0,0,1,.74-4.68,14.33,14.33,0,0,1,3.29-5.21c.61-.61,1.57-1.06,1.69-1.95a4.3,4.3,0,0,0-1-2.74c-1-1.38-2.49-2.69-3-4.16-.86-2.3,1.22-3,3.14-3.56,1.75-.47,4-1.08,3.45-3.2-.43-1.53-2.35-2.78-2.93-4.27-.78-2,1.11-2.07,2.46-2.79,1.76-.93,2.2-2.58,1.57-4.68-1-3.45-7.39-8.33-4.15-10.58.83-.57,1.59-.76,2.09-1.62s.6-2.06,1.29-2.89c1.09-1.32,3.35-1.54,4.53-2.77,2.42-2.51-2.81-7,2-8a5.67,5.67,0,0,0,2.79-1.15c.44-.41.79-2.38,1.28-2.52,2.19-.61,6.14,3.64,7.38,4.95C131.68,176.76,137.27,181.46,134.73,182.73Z" style="fill:#e0e0e0"></path><path d="M97.18,241.32c1.3-2.41,7-4.81,3.21-7.6a31.62,31.62,0,0,0-6.52-3.4c-3.3-1.38-4.47-4.56-2.8-7.19a4,4,0,0,0,.71-1.87c.14-2.43-3.49-3-5.57-3.88s-3.45-2.22-3.23-4.12c.23-2.09,2.53-3,3.91-4.55,3.34-3.75-3.88-7.14-5.13-10.61-.85-2.37.35-4,2.26-5.81,1.55-1.44,3.71-3.2,2.75-5.27-.82-1.8-3.8-2.39-5.26-3.86a7.06,7.06,0,0,1-2.14-5.07,6.53,6.53,0,0,1,1.83-4.44c1.67-1.82,4.82-3.37,3.65-6-.53-1.16-1.72-1.68-1.79-3a4.45,4.45,0,0,1,1.45-3.12,18.72,18.72,0,0,1,5.58-3.77c2.5-1.1,7-1.14,7,1.93a3.76,3.76,0,0,1-1.14,2.39c-.47.51-2.14,1.41-2.12,2s1.41,1.81,1.74,2.39a15.78,15.78,0,0,1,1.85,5.25,19.7,19.7,0,0,1-.11,7.38c-.21,1-.82,2.06-.45,3.05a4.68,4.68,0,0,0,2.4,2.15c1.59.8,3.63,1.2,4.9,2.37,2,1.83.55,3.87-.87,5.6-1.29,1.57-3,3.62-1.33,5.42,1.2,1.3,3.56,1.38,4.87,2.55,1.75,1.57.13,2.82-.68,4.39-1,2-.56,4,1.12,5.76,2.78,2.89,11,4,9.32,8.26-.42,1.1-1,1.77-1,2.95s.57,2.49.41,3.77c-.26,2-2.13,3.66-2.52,5.65-.79,4.07,6.21,5.39,2.57,9.44a6.92,6.92,0,0,0-1.84,2.92c-.17.68.57,2.92.21,3.37-1.6,2-7.36.09-9.15-.49C103.07,245.53,95.63,244.19,97.18,241.32Z" style="fill:#f5f5f5"></path><path d="M82.62,235.89S83.31,252,109.68,252s27.07-16.11,27.07-16.11Z" style="fill:#f0f0f0"></path></g><g id="freepik--Shadow--inject-1"><ellipse id="freepik--path--inject-1" cx="250" cy="416.24" rx="193.89" ry="11.32" style="fill:#f5f5f5"></ellipse></g><g id="freepik--Shield--inject-1"><polygon points="296.75 289.27 85.17 289.27 100.09 77.7 311.67 77.7 296.75 289.27" style="fill:#031C21;opacity:0.19"></polygon><polygon points="132.84 289.27 102.41 289.27 178.22 77.7 208.65 77.7 132.84 289.27" style="fill:#fff;opacity:0.2"></polygon><polygon points="206.75 289.27 139.63 289.27 215.44 77.7 282.56 77.7 206.75 289.27" style="fill:#fff;opacity:0.2"></polygon><polygon points="100.65 113.83 94.45 113.39 97.19 74.59 136 74.59 136 80.81 102.98 80.81 100.65 113.83" style="fill:#031C21"></polygon><polygon points="121.08 292.38 81.83 292.38 84.6 253.15 90.8 253.59 88.5 286.16 121.08 286.16 121.08 292.38" style="fill:#031C21"></polygon><polygon points="312.23 113.83 306.04 113.39 308.33 80.81 275.75 80.81 275.75 74.59 315 74.59 312.23 113.83" style="fill:#031C21"></polygon><polygon points="299.64 292.38 260.83 292.38 260.83 286.16 293.85 286.16 296.18 253.15 302.38 253.59 299.64 292.38" style="fill:#031C21"></polygon><g style="opacity:0.30000000000000004"><path d="M194.25,258.07a1.25,1.25,0,0,1-.53-.13c-.06,0-1.53-.84-4-2.36-1-.63-2.26-1.4-3.63-2.27-4.35-2.83-8.54-5.81-12.47-8.86-1-.74-1.9-1.5-2.87-2.28-3.62-3-7-5.94-9.94-8.86-.76-.76-1.51-1.52-2.26-2.3a100.83,100.83,0,0,1-7.68-8.89c-.58-.75-1.14-1.52-1.69-2.3a68.79,68.79,0,0,1-5.43-8.93c-.38-.75-.76-1.54-1.11-2.33a48.37,48.37,0,0,1-3.06-9c-.18-.71-.34-1.48-.48-2.34-.11-.56-.2-1.15-.27-1.73-.31-2.29-.57-4.62-.82-7.14-.08-.75-.15-1.51-.22-2.26-.26-3-.48-5.93-.64-8.85V177c0-.66-.08-1.32-.11-2-.14-2.88-.24-5.85-.3-8.83l0-2.27c0-3.15,0-6.12,0-8.83,0-.76,0-1.52.05-2.27.07-3.26.18-6.23.31-8.83v-.17c0-.72.06-1.42.1-2.11.18-3.22.39-6.27.61-8.83.07-.87.13-1.61.2-2.27.23-2.52.4-3.93.4-3.93a1.09,1.09,0,0,1,1-1c.18,0,18.63-1.43,38.28-4.89,4-.7,7.86-1.46,11.52-2.25,5.39-1.18,10.32-2.46,14.67-3.81a1.1,1.1,0,0,1,.67,0c4.15,1.36,8.9,2.64,14.12,3.81,3.55.8,7.31,1.55,11.2,2.25,19.16,3.46,37.41,4.88,37.59,4.89a1.09,1.09,0,0,1,1,1.12s0,1.4-.15,3.93c0,.67-.07,1.43-.12,2.27-.15,2.57-.37,5.62-.64,8.83-.06.64-.12,1.28-.18,1.95l0,.33c-.23,2.61-.55,5.58-.93,8.82-.09.77-.18,1.52-.28,2.28-.34,2.72-.75,5.69-1.23,8.82l-.34,2.26c-.48,3-1,6-1.54,8.84-.12.64-.25,1.29-.38,1.94l-.07.34c-.57,2.9-1.2,5.88-1.88,8.83l-.54,2.28c-.61,2.52-1.2,4.85-1.82,7.13-.17.59-.34,1.17-.52,1.75-.27.85-.53,1.61-.81,2.33a56.71,56.71,0,0,1-4.32,9c-.45.77-.93,1.55-1.43,2.31a84.25,84.25,0,0,1-6.67,8.91c-.66.77-1.32,1.54-2,2.29a124.33,124.33,0,0,1-8.9,8.88q-1.29,1.16-2.58,2.28c-3.39,2.92-7.14,5.89-11.17,8.85-1.08.78-2.14,1.54-3.19,2.28-4.36,3.05-9,6-13.7,8.85-1.5.87-2.83,1.64-4,2.27-2.68,1.51-4.26,2.32-4.32,2.35A1.11,1.11,0,0,1,194.25,258.07ZM140.48,127.8c-.07.66-.17,1.66-.29,3-.07.66-.13,1.39-.19,2.19-.22,2.6-.43,5.63-.61,8.84,0,.68-.07,1.37-.11,2.09v.17c-.14,2.58-.24,5.53-.31,8.77,0,.74,0,1.49-.05,2.25,0,2.7,0,5.65,0,8.77l0,2.27c.06,2.95.16,5.9.3,8.75,0,.66.06,1.31.1,2l0,.3c.16,2.89.37,5.84.63,8.76.07.75.14,1.5.22,2.25.24,2.49.51,4.81.81,7.07.07.55.15,1.1.25,1.64.14.82.29,1.53.46,2.21a46.49,46.49,0,0,0,2.93,8.6c.34.75.69,1.5,1.06,2.22a67.23,67.23,0,0,0,5.26,8.66c.54.75,1.08,1.5,1.65,2.23a101.37,101.37,0,0,0,7.51,8.71c.74.76,1.48,1.51,2.23,2.25,2.92,2.87,6.21,5.8,9.78,8.72,1,.77,1.9,1.52,2.84,2.26,3.87,3,8,5.95,12.3,8.74,1.35.86,2.56,1.62,3.59,2.24,1.59,1,2.77,1.66,3.4,2,.67-.35,2-1,3.72-2,1.13-.63,2.44-1.39,3.92-2.26,4.68-2.79,9.24-5.73,13.55-8.75,1-.73,2.09-1.48,3.16-2.26,4-2.92,7.69-5.85,11-8.73.85-.74,1.7-1.49,2.54-2.26a122.33,122.33,0,0,0,8.76-8.72c.67-.74,1.32-1.48,2-2.23a81,81,0,0,0,6.5-8.68c.49-.74,1-1.49,1.38-2.23A54.7,54.7,0,0,0,255,199c.27-.69.52-1.41.77-2.22.18-.55.34-1.11.49-1.66.62-2.26,1.21-4.57,1.81-7.07.19-.75.36-1.5.54-2.25.67-2.93,1.3-5.88,1.86-8.76l.07-.35c.13-.64.25-1.28.37-1.92.54-2.84,1.06-5.79,1.53-8.77l.35-2.25c.47-3.11.88-6.06,1.22-8.77.1-.75.18-1.49.27-2.23.38-3.24.7-6.19.93-8.79l0-.33c.06-.66.12-1.31.17-1.94h0c.27-3.18.49-6.21.63-8.76.05-.84.09-1.59.13-2.26.05-1.22.09-2.18.11-2.83-4.16-.36-20.12-1.83-36.76-4.83-3.92-.71-7.71-1.47-11.29-2.27-5.15-1.16-9.85-2.42-14-3.76-4.33,1.34-9.21,2.6-14.53,3.76-3.68.8-7.58,1.56-11.6,2.27C160.8,126,144.45,127.47,140.48,127.8Z" style="fill:#031C21"></path><ellipse cx="200.9" cy="162.71" rx="13.59" ry="12.67" transform="translate(-56.65 185.18) rotate(-43.99)" style="fill:#031C21"></ellipse><polygon points="203.78 167.29 200.57 167.29 197.37 167.29 188.31 209.55 206.88 209.55 203.78 167.29" style="fill:#031C21"></polygon><g style="opacity:0.2"><path d="M229.67,121.88H177.88c3.84-.68,7.73-1.43,11.56-2.27h29C222.15,120.45,225.93,121.2,229.67,121.88Z" style="fill:#031C21"></path><path d="M267.1,132.94H138.9c.06-.84.12-1.59.19-2.27H267.22C267.19,131.35,267.15,132.1,267.1,132.94Z" style="fill:#031C21"></path><path d="M266.46,141.73c-.06.74-.13,1.5-.2,2.28H138.18c0-.78.07-1.54.11-2.28Z" style="fill:#031C21"></path><path d="M265.33,152.8c-.09.75-.18,1.51-.28,2.27H137.82c0-.76,0-1.52.05-2.27Z" style="fill:#031C21"></path><path d="M263.83,163.87c-.12.75-.23,1.5-.35,2.26H137.83c0-.76,0-1.51,0-2.26Z" style="fill:#031C21"></path><path d="M262,174.93l-.45,2.27H138.25c0-.76-.09-1.52-.12-2.27Z" style="fill:#031C21"></path><path d="M259.63,186l-.54,2.26h-120c-.08-.75-.15-1.51-.22-2.26Z" style="fill:#031C21"></path><path d="M256.77,197.06c-.24.76-.5,1.52-.79,2.27H140.65c-.19-.75-.34-1.51-.47-2.27Z" style="fill:#031C21"></path><path d="M251.74,208.12c-.44.76-.92,1.53-1.4,2.27H144.73c-.38-.74-.74-1.51-1.08-2.27Z" style="fill:#031C21"></path><path d="M243.75,219.19c-.65.76-1.3,1.52-2,2.26h-90c-.58-.74-1.13-1.5-1.67-2.26Z" style="fill:#031C21"></path><path d="M232.93,230.25c-.85.77-1.7,1.53-2.56,2.27H161.58c-.75-.74-1.5-1.5-2.24-2.27Z" style="fill:#031C21"></path><path d="M219.27,241.31c-1.08.78-2.13,1.54-3.18,2.27H174.3c-.94-.73-1.89-1.49-2.86-2.27Z" style="fill:#031C21"></path><path d="M202.47,252.38c-1.49.87-2.81,1.63-3.94,2.26H190.3c-1-.63-2.26-1.39-3.62-2.26Z" style="fill:#031C21"></path></g></g></g></svg>