<svg xmlns="http://www.w3.org/2000/svg" viewBox="0 0 500 500"><g id="freepik--background-complete--inject-131"><rect y="382.4" width="500" height="0.25" style="fill:#e0e0e0"></rect><rect x="90.5" y="393.76" width="48.63" height="0.25" style="fill:#e0e0e0"></rect><rect x="66.89" y="393.89" width="12.79" height="0.25" style="fill:#e0e0e0"></rect><rect x="194.72" y="392.21" width="14.97" height="0.25" style="fill:#e0e0e0"></rect><rect x="215.44" y="392.21" width="61.22" height="0.25" style="fill:#e0e0e0"></rect><rect x="363.89" y="394.14" width="56.78" height="0.25" style="fill:#e0e0e0"></rect><rect x="343.29" y="394.14" width="15.04" height="0.25" style="fill:#e0e0e0"></rect><rect x="435.67" y="389.63" width="12.89" height="0.25" style="fill:#e0e0e0"></rect><path d="M237,337.8H43.91a5.71,5.71,0,0,1-5.7-5.71V60.66A5.71,5.71,0,0,1,43.91,55H237a5.71,5.71,0,0,1,5.71,5.71V332.09A5.71,5.71,0,0,1,237,337.8ZM43.91,55.2a5.46,5.46,0,0,0-5.45,5.46V332.09a5.46,5.46,0,0,0,5.45,5.46H237a5.47,5.47,0,0,0,5.46-5.46V60.66A5.47,5.47,0,0,0,237,55.2Z" style="fill:#e0e0e0"></path><path d="M453.31,337.8H260.21a5.72,5.72,0,0,1-5.71-5.71V60.66A5.72,5.72,0,0,1,260.21,55h193.1A5.71,5.71,0,0,1,459,60.66V332.09A5.71,5.71,0,0,1,453.31,337.8ZM260.21,55.2a5.47,5.47,0,0,0-5.46,5.46V332.09a5.47,5.47,0,0,0,5.46,5.46h193.1a5.47,5.47,0,0,0,5.46-5.46V60.66a5.47,5.47,0,0,0-5.46-5.46Z" style="fill:#e0e0e0"></path><path d="M500,367.59H431.1a2.81,2.81,0,0,1-2.81-2.8V183.62a2.31,2.31,0,0,0-2.31-2.31h-7.25v-.5H426a2.81,2.81,0,0,1,2.81,2.81V364.79a2.31,2.31,0,0,0,2.31,2.3H500Z" style="fill:#e0e0e0"></path><path d="M500,363.94H433.44a2.81,2.81,0,0,1-2.81-2.81V180a2.31,2.31,0,0,0-2.3-2.31h-9.6v-.5h9.6a2.81,2.81,0,0,1,2.8,2.81V361.13a2.32,2.32,0,0,0,2.31,2.31H500Z" style="fill:#e0e0e0"></path><path d="M500,360.28H435.78a2.81,2.81,0,0,1-2.81-2.81V176.3a2.31,2.31,0,0,0-2.3-2.31H418.73v-.5h11.94a2.81,2.81,0,0,1,2.8,2.81V357.47a2.32,2.32,0,0,0,2.31,2.31H500Z" style="fill:#e0e0e0"></path><path d="M500,356.62H438.12a2.81,2.81,0,0,1-2.8-2.81V172.64a2.31,2.31,0,0,0-2.31-2.3H418.73v-.5H433a2.81,2.81,0,0,1,2.81,2.8V353.81a2.31,2.31,0,0,0,2.3,2.31H500Z" style="fill:#e0e0e0"></path><path d="M500,353H440.46a2.81,2.81,0,0,1-2.8-2.81V169a2.31,2.31,0,0,0-2.31-2.31H418.73v-.5h16.62a2.81,2.81,0,0,1,2.81,2.81V350.15a2.31,2.31,0,0,0,2.3,2.31H500Z" style="fill:#e0e0e0"></path><path d="M500,349.3H442.81a2.81,2.81,0,0,1-2.81-2.81V165.33a2.31,2.31,0,0,0-2.31-2.31h-19v-.5h19a2.81,2.81,0,0,1,2.81,2.81V346.49a2.3,2.3,0,0,0,2.31,2.31H500Z" style="fill:#e0e0e0"></path><path d="M500,345.64H445.15a2.81,2.81,0,0,1-2.81-2.8V161.67a2.32,2.32,0,0,0-2.31-2.31h-21.3v-.5H440a2.81,2.81,0,0,1,2.81,2.81V342.84a2.3,2.3,0,0,0,2.31,2.3H500Z" style="fill:#e0e0e0"></path><rect x="217.04" y="199.02" width="61.8" height="0.5" style="fill:#e0e0e0"></rect><rect x="217.04" y="195.36" width="61.8" height="0.5" style="fill:#e0e0e0"></rect><rect x="217.04" y="191.7" width="61.8" height="0.5" style="fill:#e0e0e0"></rect><rect x="217.04" y="188.04" width="61.8" height="0.5" style="fill:#e0e0e0"></rect><rect x="217.04" y="184.39" width="61.8" height="0.5" style="fill:#e0e0e0"></rect><rect x="217.04" y="180.73" width="61.8" height="0.5" style="fill:#e0e0e0"></rect><rect x="217.04" y="177.07" width="61.8" height="0.5" style="fill:#e0e0e0"></rect><rect x="217.04" y="322.98" width="61.8" height="0.5" style="fill:#e0e0e0"></rect><rect x="217.04" y="319.32" width="61.8" height="0.5" style="fill:#e0e0e0"></rect><rect x="217.04" y="315.66" width="61.8" height="0.5" style="fill:#e0e0e0"></rect><rect x="217.04" y="312" width="61.8" height="0.5" style="fill:#e0e0e0"></rect><rect x="217.04" y="308.34" width="61.8" height="0.5" style="fill:#e0e0e0"></rect><rect x="217.04" y="304.69" width="61.8" height="0.5" style="fill:#e0e0e0"></rect><rect x="217.04" y="301.03" width="61.8" height="0.5" style="fill:#e0e0e0"></rect><path d="M95.94,349.77h-24A2.81,2.81,0,0,1,69.13,347V165.8a2.3,2.3,0,0,0-2.3-2.31H38.46V163H66.83a2.8,2.8,0,0,1,2.8,2.81V347a2.31,2.31,0,0,0,2.31,2.31h24Z" style="fill:#e0e0e0"></path><path d="M95.94,353.43H69.6a2.81,2.81,0,0,1-2.81-2.81V169.46a2.3,2.3,0,0,0-2.3-2.31h-26v-.5h26a2.81,2.81,0,0,1,2.8,2.81V350.62a2.31,2.31,0,0,0,2.31,2.31H95.94Z" style="fill:#e0e0e0"></path><path d="M95.94,357.09H67.26a2.81,2.81,0,0,1-2.81-2.81V173.11a2.3,2.3,0,0,0-2.3-2.3H38.46v-.5H62.15a2.81,2.81,0,0,1,2.8,2.8V354.28a2.32,2.32,0,0,0,2.31,2.31H95.94Z" style="fill:#e0e0e0"></path><path d="M95.94,360.75h-31a2.81,2.81,0,0,1-2.81-2.81V176.77a2.31,2.31,0,0,0-2.31-2.31H38.46V174H59.8a2.81,2.81,0,0,1,2.81,2.81V357.94a2.32,2.32,0,0,0,2.31,2.31h31Z" style="fill:#e0e0e0"></path><path d="M95.94,364.41H62.58a2.81,2.81,0,0,1-2.81-2.81V180.43a2.31,2.31,0,0,0-2.31-2.31h-19v-.5h19a2.81,2.81,0,0,1,2.81,2.81V361.6a2.32,2.32,0,0,0,2.31,2.31H95.94Z" style="fill:#e0e0e0"></path><path d="M95.94,368.06H60.24a2.81,2.81,0,0,1-2.81-2.8V184.09a2.32,2.32,0,0,0-2.31-2.31H38.46v-.5H55.12a2.81,2.81,0,0,1,2.81,2.81V365.26a2.31,2.31,0,0,0,2.31,2.3h35.7Z" style="fill:#e0e0e0"></path><path d="M95.94,371.72h-38a2.81,2.81,0,0,1-2.81-2.8V187.75a2.32,2.32,0,0,0-2.31-2.31H38.46v-.5H52.78a2.81,2.81,0,0,1,2.81,2.81V368.92a2.3,2.3,0,0,0,2.31,2.3h38Z" style="fill:#e0e0e0"></path><rect x="95.94" y="367.34" width="101.46" height="15.05" style="fill:#ebebeb"></rect><rect x="197.4" y="367.34" width="20.58" height="15.05" transform="translate(415.38 749.74) rotate(180)" style="fill:#e0e0e0"></rect><rect x="89.07" y="101.38" width="108.33" height="265.97" style="fill:#f5f5f5"></rect><rect x="98.17" y="99.1" width="117.58" height="2.27" style="fill:#ebebeb"></rect><rect x="197.4" y="101.38" width="27.44" height="265.97" transform="translate(422.24 468.72) rotate(180)" style="fill:#ebebeb"></rect><rect x="92.3" y="104.56" width="101.87" height="29.14" style="fill:#ebebeb"></rect><rect x="92.3" y="334.85" width="101.87" height="29.14" style="fill:#ebebeb"></rect><rect x="92.3" y="301.95" width="101.87" height="29.14" style="fill:#ebebeb"></rect><rect x="92.3" y="269.06" width="101.87" height="29.14" style="fill:#ebebeb"></rect><rect x="92.3" y="236.16" width="101.87" height="29.14" style="fill:#ebebeb"></rect><rect x="92.3" y="203.26" width="101.87" height="29.14" style="fill:#ebebeb"></rect><rect x="92.3" y="170.36" width="101.87" height="29.14" style="fill:#ebebeb"></rect><rect x="92.3" y="137.46" width="101.87" height="29.14" style="fill:#ebebeb"></rect><rect x="161.83" y="108.73" width="28.36" height="20.82" rx="4.25" style="fill:#fff;opacity:0.7000000000000001"></rect><rect x="181.56" y="116.47" width="5.32" height="5.33" rx="1.28" transform="translate(303.35 -65.08) rotate(90)" style="fill:#f5f5f5"></rect><rect x="161.83" y="141.62" width="28.36" height="20.82" rx="4.25" style="fill:#fff;opacity:0.7000000000000001"></rect><rect x="181.56" y="149.37" width="5.32" height="5.33" rx="1.28" transform="translate(336.25 -32.18) rotate(90)" style="fill:#f5f5f5"></rect><rect x="161.83" y="174.52" width="28.36" height="20.82" rx="4.25" style="fill:#fff;opacity:0.7000000000000001"></rect><rect x="181.56" y="182.27" width="5.32" height="5.33" rx="1.28" transform="translate(369.15 0.72) rotate(90)" style="fill:#f5f5f5"></rect><rect x="161.83" y="207.42" width="28.36" height="20.82" rx="4.25" style="fill:#fff;opacity:0.7000000000000001"></rect><rect x="181.56" y="215.17" width="5.32" height="5.33" rx="1.28" transform="translate(402.05 33.61) rotate(90)" style="fill:#f5f5f5"></rect><rect x="161.83" y="240.32" width="28.36" height="20.82" rx="4.25" style="fill:#fff;opacity:0.7000000000000001"></rect><rect x="181.56" y="248.06" width="5.32" height="5.33" rx="1.28" transform="translate(434.94 66.51) rotate(90)" style="fill:#f5f5f5"></rect><rect x="161.83" y="273.22" width="28.36" height="20.82" rx="4.25" style="fill:#fff;opacity:0.7000000000000001"></rect><rect x="181.56" y="280.96" width="5.32" height="5.33" rx="1.28" transform="translate(467.84 99.41) rotate(90)" style="fill:#f5f5f5"></rect><rect x="161.83" y="306.12" width="28.36" height="20.82" rx="4.25" style="fill:#fff;opacity:0.7000000000000001"></rect><rect x="181.56" y="313.86" width="5.32" height="5.33" rx="1.28" transform="translate(500.74 132.31) rotate(90)" style="fill:#f5f5f5"></rect><rect x="161.83" y="339.01" width="28.36" height="20.82" rx="4.25" style="fill:#fff;opacity:0.7000000000000001"></rect><rect x="181.56" y="346.76" width="5.32" height="5.33" rx="1.28" transform="translate(533.64 165.21) rotate(90)" style="fill:#f5f5f5"></rect><rect x="173.35" y="116.47" width="5.32" height="5.33" rx="1.28" transform="translate(295.14 -56.88) rotate(90)" style="fill:#f5f5f5"></rect><rect x="173.35" y="149.37" width="5.32" height="5.33" rx="1.28" transform="translate(328.04 -23.98) rotate(90)" style="fill:#f5f5f5"></rect><rect x="173.35" y="182.27" width="5.32" height="5.33" rx="1.28" transform="translate(360.94 8.92) rotate(90)" style="fill:#f5f5f5"></rect><rect x="173.35" y="215.17" width="5.32" height="5.33" rx="1.28" transform="translate(393.84 41.82) rotate(90)" style="fill:#f5f5f5"></rect><rect x="173.35" y="248.06" width="5.32" height="5.33" rx="1.28" transform="translate(426.74 74.72) rotate(90)" style="fill:#f5f5f5"></rect><rect x="173.35" y="280.96" width="5.32" height="5.33" rx="1.28" transform="translate(459.64 107.62) rotate(90)" style="fill:#f5f5f5"></rect><rect x="173.35" y="313.86" width="5.32" height="5.33" rx="1.28" transform="translate(492.53 140.51) rotate(90)" style="fill:#f5f5f5"></rect><rect x="173.35" y="346.76" width="5.32" height="5.33" rx="1.28" transform="translate(525.43 173.41) rotate(90)" style="fill:#f5f5f5"></rect><circle cx="151.6" cy="119.13" r="3.36" style="fill:#f5f5f5"></circle><path d="M145.36,119.13a3.37,3.37,0,1,1-3.37-3.36A3.37,3.37,0,0,1,145.36,119.13Z" style="fill:#f5f5f5"></path><path d="M135.75,119.13a3.37,3.37,0,1,1-3.37-3.36A3.37,3.37,0,0,1,135.75,119.13Z" style="fill:#f5f5f5"></path><circle cx="122.77" cy="119.13" r="3.36" style="fill:#f5f5f5"></circle><circle cx="151.6" cy="152.03" r="3.36" style="fill:#f5f5f5"></circle><path d="M145.36,152a3.37,3.37,0,1,1-3.37-3.36A3.37,3.37,0,0,1,145.36,152Z" style="fill:#f5f5f5"></path><path d="M135.75,152a3.37,3.37,0,1,1-3.37-3.36A3.37,3.37,0,0,1,135.75,152Z" style="fill:#f5f5f5"></path><circle cx="122.77" cy="152.03" r="3.36" style="fill:#f5f5f5"></circle><path d="M155,184.93a3.37,3.37,0,1,1-3.37-3.36A3.36,3.36,0,0,1,155,184.93Z" style="fill:#f5f5f5"></path><path d="M145.36,184.93a3.37,3.37,0,1,1-3.37-3.36A3.36,3.36,0,0,1,145.36,184.93Z" style="fill:#f5f5f5"></path><path d="M135.75,184.93a3.37,3.37,0,1,1-3.37-3.36A3.36,3.36,0,0,1,135.75,184.93Z" style="fill:#f5f5f5"></path><path d="M126.14,184.93a3.37,3.37,0,1,1-3.37-3.36A3.36,3.36,0,0,1,126.14,184.93Z" style="fill:#f5f5f5"></path><path d="M155,217.83a3.37,3.37,0,1,1-3.37-3.36A3.36,3.36,0,0,1,155,217.83Z" style="fill:#f5f5f5"></path><path d="M145.36,217.83a3.37,3.37,0,1,1-3.37-3.36A3.36,3.36,0,0,1,145.36,217.83Z" style="fill:#f5f5f5"></path><path d="M135.75,217.83a3.37,3.37,0,1,1-3.37-3.36A3.36,3.36,0,0,1,135.75,217.83Z" style="fill:#f5f5f5"></path><path d="M126.14,217.83a3.37,3.37,0,1,1-3.37-3.36A3.36,3.36,0,0,1,126.14,217.83Z" style="fill:#f5f5f5"></path><path d="M155,250.73a3.37,3.37,0,1,1-3.37-3.37A3.36,3.36,0,0,1,155,250.73Z" style="fill:#f5f5f5"></path><path d="M145.36,250.73a3.37,3.37,0,1,1-3.37-3.37A3.36,3.36,0,0,1,145.36,250.73Z" style="fill:#f5f5f5"></path><path d="M135.75,250.73a3.37,3.37,0,1,1-3.37-3.37A3.36,3.36,0,0,1,135.75,250.73Z" style="fill:#f5f5f5"></path><path d="M126.14,250.73a3.37,3.37,0,1,1-3.37-3.37A3.36,3.36,0,0,1,126.14,250.73Z" style="fill:#f5f5f5"></path><path d="M155,283.63a3.37,3.37,0,1,1-3.37-3.37A3.37,3.37,0,0,1,155,283.63Z" style="fill:#f5f5f5"></path><path d="M145.36,283.63a3.37,3.37,0,1,1-3.37-3.37A3.37,3.37,0,0,1,145.36,283.63Z" style="fill:#f5f5f5"></path><path d="M135.75,283.63a3.37,3.37,0,1,1-3.37-3.37A3.37,3.37,0,0,1,135.75,283.63Z" style="fill:#f5f5f5"></path><path d="M126.14,283.63a3.37,3.37,0,1,1-3.37-3.37A3.37,3.37,0,0,1,126.14,283.63Z" style="fill:#f5f5f5"></path><circle cx="151.6" cy="316.52" r="3.36" style="fill:#f5f5f5"></circle><path d="M145.36,316.52a3.37,3.37,0,1,1-3.37-3.36A3.37,3.37,0,0,1,145.36,316.52Z" style="fill:#f5f5f5"></path><path d="M135.75,316.52a3.37,3.37,0,1,1-3.37-3.36A3.37,3.37,0,0,1,135.75,316.52Z" style="fill:#f5f5f5"></path><circle cx="122.77" cy="316.52" r="3.36" style="fill:#f5f5f5"></circle><circle cx="151.6" cy="349.42" r="3.36" style="fill:#f5f5f5"></circle><path d="M145.36,349.42a3.37,3.37,0,1,1-3.37-3.36A3.37,3.37,0,0,1,145.36,349.42Z" style="fill:#f5f5f5"></path><path d="M135.75,349.42a3.37,3.37,0,1,1-3.37-3.36A3.37,3.37,0,0,1,135.75,349.42Z" style="fill:#f5f5f5"></path><circle cx="122.77" cy="349.42" r="3.36" style="fill:#f5f5f5"></circle><circle cx="105.42" cy="119.13" r="7.29" style="fill:#e0e0e0"></circle><circle cx="105.42" cy="152.03" r="7.29" style="fill:#e0e0e0"></circle><circle cx="105.42" cy="184.93" r="7.29" transform="translate(-93.98 259.44) rotate(-80.8)" style="fill:#e0e0e0"></circle><circle cx="105.42" cy="217.83" r="7.29" transform="translate(-126.46 287.08) rotate(-80.8)" style="fill:#e0e0e0"></circle><circle cx="105.42" cy="250.73" r="7.29" transform="translate(-87.57 59.07) rotate(-22.39)" style="fill:#e0e0e0"></circle><circle cx="105.42" cy="283.63" r="7.29" transform="translate(-100.11 61.55) rotate(-22.39)" style="fill:#e0e0e0"></circle><circle cx="105.42" cy="316.52" r="7.29" style="fill:#e0e0e0"></circle><circle cx="105.42" cy="349.42" r="7.29" style="fill:#e0e0e0"></circle><rect x="275.37" y="368.59" width="117.31" height="13.81" style="fill:#ebebeb"></rect><rect x="392.67" y="368.59" width="19.54" height="13.81" transform="translate(804.89 750.99) rotate(180)" style="fill:#e0e0e0"></rect><rect x="268.85" y="124.65" width="123.82" height="243.94" style="fill:#f5f5f5"></rect><rect x="277.49" y="122.56" width="132.6" height="2.09" style="fill:#ebebeb"></rect><rect x="392.67" y="124.65" width="26.06" height="243.94" transform="translate(811.4 493.24) rotate(180)" style="fill:#ebebeb"></rect><rect x="271.91" y="127.57" width="117.69" height="26.73" transform="translate(661.52 281.87) rotate(180)" style="fill:#ebebeb"></rect><rect x="271.91" y="338.79" width="117.69" height="26.73" transform="translate(661.52 704.31) rotate(180)" style="fill:#ebebeb"></rect><rect x="271.91" y="308.62" width="117.69" height="26.73" transform="translate(661.52 643.96) rotate(180)" style="fill:#ebebeb"></rect><rect x="271.91" y="278.44" width="117.69" height="26.73" transform="translate(661.52 583.61) rotate(180)" style="fill:#ebebeb"></rect><rect x="271.91" y="248.27" width="117.69" height="26.73" transform="translate(661.52 523.26) rotate(180)" style="fill:#ebebeb"></rect><rect x="271.91" y="218.09" width="117.69" height="26.73" transform="translate(661.52 462.92) rotate(180)" style="fill:#ebebeb"></rect><rect x="271.91" y="187.92" width="117.69" height="26.73" transform="translate(661.52 402.57) rotate(180)" style="fill:#ebebeb"></rect><rect x="271.91" y="157.74" width="117.69" height="26.73" transform="translate(661.52 342.22) rotate(180)" style="fill:#ebebeb"></rect><rect x="275.7" y="131.39" width="64.59" height="19.09" rx="3.97" transform="translate(615.98 281.87) rotate(180)" style="fill:#e0e0e0"></rect><rect x="278.93" y="138.41" width="4.88" height="5.06" rx="1.19" transform="translate(422.3 -140.43) rotate(90)" style="fill:#f5f5f5"></rect><rect x="275.7" y="161.56" width="64.59" height="19.09" rx="3.97" transform="translate(615.98 342.22) rotate(180)" style="fill:#e0e0e0"></rect><rect x="278.93" y="168.58" width="4.88" height="5.06" rx="1.19" transform="translate(452.48 -110.26) rotate(90)" style="fill:#f5f5f5"></rect><rect x="275.7" y="191.74" width="64.59" height="19.09" rx="3.97" transform="translate(615.98 402.57) rotate(180)" style="fill:#e0e0e0"></rect><rect x="278.93" y="198.75" width="4.88" height="5.06" rx="1.19" transform="translate(482.65 -80.08) rotate(90)" style="fill:#f5f5f5"></rect><rect x="275.7" y="221.91" width="64.59" height="19.09" rx="3.97" transform="translate(615.98 462.92) rotate(180)" style="fill:#e0e0e0"></rect><rect x="278.93" y="228.93" width="4.88" height="5.06" rx="1.19" transform="translate(512.82 -49.91) rotate(90)" style="fill:#f5f5f5"></rect><rect x="275.7" y="252.08" width="64.59" height="19.09" rx="3.97" transform="translate(615.98 523.26) rotate(180)" style="fill:#e0e0e0"></rect><rect x="278.93" y="259.1" width="4.88" height="5.06" rx="1.19" transform="translate(543 -19.74) rotate(90)" style="fill:#f5f5f5"></rect><rect x="275.7" y="282.26" width="64.59" height="19.09" rx="3.97" transform="translate(615.98 583.61) rotate(180)" style="fill:#e0e0e0"></rect><rect x="278.93" y="289.28" width="4.88" height="5.06" rx="1.19" transform="translate(573.17 10.44) rotate(90)" style="fill:#f5f5f5"></rect><rect x="275.7" y="312.43" width="64.59" height="19.09" rx="3.97" transform="translate(615.98 643.96) rotate(180)" style="fill:#e0e0e0"></rect><rect x="278.93" y="319.45" width="4.88" height="5.06" rx="1.19" transform="translate(603.35 40.61) rotate(90)" style="fill:#f5f5f5"></rect><rect x="275.7" y="342.61" width="64.59" height="19.09" rx="3.97" transform="translate(615.98 704.31) rotate(180)" style="fill:#e0e0e0"></rect><rect x="278.93" y="349.62" width="4.88" height="5.06" rx="1.19" transform="translate(633.52 70.79) rotate(90)" style="fill:#f5f5f5"></rect><rect x="286.72" y="138.41" width="4.88" height="5.06" rx="1.19" transform="translate(430.09 -148.22) rotate(90)" style="fill:#f5f5f5"></rect><rect x="286.72" y="168.58" width="4.88" height="5.06" rx="1.19" transform="translate(460.27 -118.05) rotate(90)" style="fill:#f5f5f5"></rect><rect x="286.72" y="198.75" width="4.88" height="5.06" rx="1.19" transform="translate(490.44 -87.87) rotate(90)" style="fill:#f5f5f5"></rect><rect x="286.72" y="228.93" width="4.88" height="5.06" rx="1.19" transform="translate(520.62 -57.7) rotate(90)" style="fill:#f5f5f5"></rect><rect x="286.72" y="259.1" width="4.88" height="5.06" rx="1.19" transform="translate(550.79 -27.53) rotate(90)" style="fill:#f5f5f5"></rect><rect x="286.72" y="289.28" width="4.88" height="5.06" rx="1.19" transform="translate(580.96 2.65) rotate(90)" style="fill:#f5f5f5"></rect><rect x="286.72" y="319.45" width="4.88" height="5.06" rx="1.19" transform="translate(611.14 32.82) rotate(90)" style="fill:#f5f5f5"></rect><rect x="286.72" y="349.62" width="4.88" height="5.06" rx="1.19" transform="translate(641.31 63) rotate(90)" style="fill:#f5f5f5"></rect><rect x="294.51" y="138.41" width="4.88" height="5.06" rx="1.19" transform="translate(437.88 -156.01) rotate(90)" style="fill:#f5f5f5"></rect><rect x="294.51" y="168.58" width="4.88" height="5.06" rx="1.19" transform="translate(468.06 -125.84) rotate(90)" style="fill:#f5f5f5"></rect><rect x="294.51" y="198.75" width="4.88" height="5.06" rx="1.19" transform="translate(498.23 -95.67) rotate(90)" style="fill:#f5f5f5"></rect><rect x="294.51" y="228.93" width="4.88" height="5.06" rx="1.19" transform="translate(528.41 -65.49) rotate(90)" style="fill:#f5f5f5"></rect><rect x="294.51" y="259.1" width="4.88" height="5.06" rx="1.19" transform="translate(558.58 -35.32) rotate(90)" style="fill:#f5f5f5"></rect><rect x="294.51" y="289.28" width="4.88" height="5.06" rx="1.19" transform="translate(588.75 -5.14) rotate(90)" style="fill:#f5f5f5"></rect><rect x="294.51" y="319.45" width="4.88" height="5.06" rx="1.19" transform="translate(618.93 25.03) rotate(90)" style="fill:#f5f5f5"></rect><rect x="294.51" y="349.62" width="4.88" height="5.06" rx="1.19" transform="translate(649.1 55.2) rotate(90)" style="fill:#f5f5f5"></rect><rect x="302.3" y="138.41" width="4.88" height="5.06" rx="1.19" transform="translate(445.68 -163.8) rotate(90)" style="fill:#f5f5f5"></rect><rect x="302.3" y="168.58" width="4.88" height="5.06" rx="1.19" transform="translate(475.85 -133.63) rotate(90)" style="fill:#f5f5f5"></rect><rect x="302.3" y="198.75" width="4.88" height="5.06" rx="1.19" transform="translate(506.02 -103.46) rotate(90)" style="fill:#f5f5f5"></rect><rect x="302.3" y="228.93" width="4.88" height="5.06" rx="1.19" transform="translate(536.2 -73.28) rotate(90)" style="fill:#f5f5f5"></rect><rect x="302.3" y="259.1" width="4.88" height="5.06" rx="1.19" transform="translate(566.37 -43.11) rotate(90)" style="fill:#f5f5f5"></rect><rect x="302.3" y="289.28" width="4.88" height="5.06" rx="1.19" transform="translate(596.55 -12.93) rotate(90)" style="fill:#f5f5f5"></rect><rect x="302.3" y="319.45" width="4.88" height="5.06" rx="1.19" transform="translate(626.72 17.24) rotate(90)" style="fill:#f5f5f5"></rect><rect x="302.3" y="349.62" width="4.88" height="5.06" rx="1.19" transform="translate(656.89 47.41) rotate(90)" style="fill:#f5f5f5"></rect><path d="M346.8,140.94a3.2,3.2,0,1,0,3.2-3.09A3.14,3.14,0,0,0,346.8,140.94Z" style="fill:#f5f5f5"></path><path d="M355.93,140.94a3.2,3.2,0,1,0,3.19-3.09A3.14,3.14,0,0,0,355.93,140.94Z" style="fill:#f5f5f5"></path><path d="M365.05,140.94a3.2,3.2,0,1,0,3.2-3.09A3.14,3.14,0,0,0,365.05,140.94Z" style="fill:#f5f5f5"></path><path d="M374.18,140.94a3.19,3.19,0,1,0,3.19-3.09A3.14,3.14,0,0,0,374.18,140.94Z" style="fill:#f5f5f5"></path><path d="M346.8,171.11A3.2,3.2,0,1,0,350,168,3.14,3.14,0,0,0,346.8,171.11Z" style="fill:#f5f5f5"></path><path d="M355.93,171.11a3.2,3.2,0,1,0,3.19-3.09A3.14,3.14,0,0,0,355.93,171.11Z" style="fill:#f5f5f5"></path><path d="M365.05,171.11a3.2,3.2,0,1,0,3.2-3.09A3.14,3.14,0,0,0,365.05,171.11Z" style="fill:#f5f5f5"></path><path d="M374.18,171.11a3.19,3.19,0,1,0,3.19-3.09A3.14,3.14,0,0,0,374.18,171.11Z" style="fill:#f5f5f5"></path><path d="M346.8,201.28a3.2,3.2,0,1,0,3.2-3.08A3.14,3.14,0,0,0,346.8,201.28Z" style="fill:#f5f5f5"></path><path d="M355.93,201.28a3.2,3.2,0,1,0,3.19-3.08A3.14,3.14,0,0,0,355.93,201.28Z" style="fill:#f5f5f5"></path><path d="M365.05,201.28a3.2,3.2,0,1,0,3.2-3.08A3.14,3.14,0,0,0,365.05,201.28Z" style="fill:#f5f5f5"></path><path d="M374.18,201.28a3.19,3.19,0,1,0,3.19-3.08A3.14,3.14,0,0,0,374.18,201.28Z" style="fill:#f5f5f5"></path><path d="M346.8,231.46a3.2,3.2,0,1,0,3.2-3.09A3.14,3.14,0,0,0,346.8,231.46Z" style="fill:#f5f5f5"></path><path d="M355.93,231.46a3.2,3.2,0,1,0,3.19-3.09A3.14,3.14,0,0,0,355.93,231.46Z" style="fill:#f5f5f5"></path><path d="M365.05,231.46a3.2,3.2,0,1,0,3.2-3.09A3.14,3.14,0,0,0,365.05,231.46Z" style="fill:#f5f5f5"></path><path d="M374.18,231.46a3.19,3.19,0,1,0,3.19-3.09A3.14,3.14,0,0,0,374.18,231.46Z" style="fill:#f5f5f5"></path><path d="M346.8,261.63a3.2,3.2,0,1,0,3.2-3.08A3.14,3.14,0,0,0,346.8,261.63Z" style="fill:#f5f5f5"></path><path d="M355.93,261.63a3.2,3.2,0,1,0,3.19-3.08A3.14,3.14,0,0,0,355.93,261.63Z" style="fill:#f5f5f5"></path><path d="M365.05,261.63a3.2,3.2,0,1,0,3.2-3.08A3.14,3.14,0,0,0,365.05,261.63Z" style="fill:#f5f5f5"></path><path d="M374.18,261.63a3.19,3.19,0,1,0,3.19-3.08A3.14,3.14,0,0,0,374.18,261.63Z" style="fill:#f5f5f5"></path><path d="M346.8,291.81a3.2,3.2,0,1,0,3.2-3.09A3.14,3.14,0,0,0,346.8,291.81Z" style="fill:#f5f5f5"></path><path d="M355.93,291.81a3.2,3.2,0,1,0,3.19-3.09A3.14,3.14,0,0,0,355.93,291.81Z" style="fill:#f5f5f5"></path><path d="M365.05,291.81a3.2,3.2,0,1,0,3.2-3.09A3.14,3.14,0,0,0,365.05,291.81Z" style="fill:#f5f5f5"></path><path d="M374.18,291.81a3.19,3.19,0,1,0,3.19-3.09A3.14,3.14,0,0,0,374.18,291.81Z" style="fill:#f5f5f5"></path><path d="M346.8,322a3.2,3.2,0,1,0,3.2-3.08A3.14,3.14,0,0,0,346.8,322Z" style="fill:#f5f5f5"></path><path d="M355.93,322a3.2,3.2,0,1,0,3.19-3.08A3.14,3.14,0,0,0,355.93,322Z" style="fill:#f5f5f5"></path><path d="M365.05,322a3.2,3.2,0,1,0,3.2-3.08A3.14,3.14,0,0,0,365.05,322Z" style="fill:#f5f5f5"></path><path d="M374.18,322a3.19,3.19,0,1,0,3.19-3.08A3.14,3.14,0,0,0,374.18,322Z" style="fill:#f5f5f5"></path><path d="M346.8,352.15a3.2,3.2,0,1,0,3.2-3.08A3.14,3.14,0,0,0,346.8,352.15Z" style="fill:#f5f5f5"></path><path d="M355.93,352.15a3.2,3.2,0,1,0,3.19-3.08A3.14,3.14,0,0,0,355.93,352.15Z" style="fill:#f5f5f5"></path><path d="M365.05,352.15a3.2,3.2,0,1,0,3.2-3.08A3.14,3.14,0,0,0,365.05,352.15Z" style="fill:#f5f5f5"></path><path d="M374.18,352.15a3.19,3.19,0,1,0,3.19-3.08A3.14,3.14,0,0,0,374.18,352.15Z" style="fill:#f5f5f5"></path></g><g id="freepik--Shadow--inject-131"><ellipse cx="250" cy="416.24" rx="193.89" ry="11.32" style="fill:#f5f5f5"></ellipse></g><g id="freepik--Device--inject-131"><rect x="118.88" y="403.8" width="116.93" height="13.34" style="fill:#031C21"></rect><rect x="118.88" y="403.8" width="116.93" height="13.34" style="opacity:0.30000000000000004"></rect><rect x="121.92" y="405.7" width="2.93" height="9.55" style="fill:#263238"></rect><rect x="127.06" y="405.7" width="2.93" height="9.55" style="fill:#263238"></rect><rect x="132.21" y="405.7" width="2.93" height="9.55" style="fill:#263238"></rect><rect x="137.35" y="405.7" width="2.93" height="9.55" style="fill:#263238"></rect><rect x="142.49" y="405.7" width="2.93" height="9.55" style="fill:#263238"></rect><rect x="147.63" y="405.7" width="2.93" height="9.55" style="fill:#263238"></rect><rect x="152.78" y="405.7" width="2.93" height="9.55" style="fill:#263238"></rect><rect x="157.92" y="405.7" width="2.93" height="9.55" style="fill:#263238"></rect><rect x="163.06" y="405.7" width="2.93" height="9.55" style="fill:#263238"></rect><rect x="168.2" y="405.7" width="2.93" height="9.55" style="fill:#263238"></rect><rect x="173.34" y="405.7" width="2.93" height="9.55" style="fill:#263238"></rect><rect x="178.49" y="405.7" width="2.93" height="9.55" style="fill:#263238"></rect><rect x="183.63" y="405.7" width="2.93" height="9.55" style="fill:#263238"></rect><rect x="188.77" y="405.7" width="2.93" height="9.55" style="fill:#263238"></rect><rect x="193.91" y="405.7" width="2.93" height="9.55" style="fill:#263238"></rect><rect x="199.06" y="405.7" width="2.93" height="9.55" style="fill:#263238"></rect><rect x="204.2" y="405.7" width="2.93" height="9.55" style="fill:#263238"></rect><rect x="209.34" y="405.7" width="2.93" height="9.55" style="fill:#263238"></rect><rect x="214.48" y="405.7" width="2.93" height="9.55" style="fill:#263238"></rect><rect x="219.63" y="405.7" width="2.93" height="9.55" style="fill:#263238"></rect><rect x="224.77" y="405.7" width="2.93" height="9.55" style="fill:#263238"></rect><rect x="229.91" y="405.7" width="2.93" height="9.55" style="fill:#263238"></rect><rect x="235.81" y="403.8" width="18.24" height="13.34" transform="translate(489.87 820.95) rotate(180)" style="fill:#263238"></rect><rect x="112.8" y="168.05" width="123.02" height="235.75" style="fill:#031C21"></rect><rect x="112.8" y="168.05" width="123.02" height="235.75" style="fill:#fff;opacity:0.30000000000000004"></rect><rect x="120.86" y="166.03" width="131.21" height="2.02" style="fill:#263238"></rect><rect x="107.92" y="277.9" width="1" height="9.93" style="fill:#031C21"></rect><rect x="107.92" y="291.17" width="1" height="25.83" style="fill:#031C21"></rect><rect x="235.81" y="168.05" width="24.33" height="235.75" transform="translate(495.95 571.85) rotate(180)" style="fill:#031C21"></rect><rect x="115.66" y="230.41" width="117.29" height="23.4" rx="3.27" style="fill:#031C21;opacity:0.6000000000000001;mix-blend-mode:multiply"></rect><rect x="115.66" y="230.41" width="117.29" height="23.4" rx="3.27" style="opacity:0.2"></rect><path d="M223.08,239l-4.73-9.76V255H233V242.11H228.1A5.57,5.57,0,0,1,223.08,239Z" style="fill:#031C21"></path><rect x="115.66" y="170.87" width="117.29" height="25.83" style="fill:#031C21"></rect><rect x="115.66" y="170.87" width="117.29" height="25.83" style="fill:#fff;opacity:0.2"></rect><rect x="115.66" y="375" width="117.29" height="25.83" style="fill:#031C21"></rect><rect x="115.66" y="375" width="117.29" height="25.83" style="fill:#fff;opacity:0.2"></rect><rect x="115.66" y="345.84" width="117.29" height="25.83" style="fill:#031C21"></rect><rect x="115.66" y="345.84" width="117.29" height="25.83" style="fill:#fff;opacity:0.2"></rect><rect x="115.66" y="316.68" width="117.29" height="25.83" style="fill:#031C21"></rect><rect x="115.66" y="316.68" width="117.29" height="25.83" style="fill:#fff;opacity:0.2"></rect><rect x="115.66" y="287.52" width="117.29" height="25.83" style="fill:#031C21"></rect><rect x="115.66" y="287.52" width="117.29" height="25.83" style="fill:#fff;opacity:0.2"></rect><rect x="115.66" y="258.36" width="117.29" height="25.83" style="fill:#031C21"></rect><rect x="115.66" y="258.36" width="117.29" height="25.83" style="fill:#fff;opacity:0.2"></rect><rect x="101.06" y="229.2" width="117.29" height="25.83" style="fill:#031C21"></rect><rect x="101.06" y="229.2" width="117.29" height="25.83" style="fill:#fff;opacity:0.2"></rect><rect x="115.66" y="200.03" width="117.29" height="25.83" style="fill:#031C21"></rect><rect x="115.66" y="200.03" width="117.29" height="25.83" style="fill:#fff;opacity:0.2"></rect><rect x="177.29" y="174.56" width="52.13" height="18.45" rx="3.77" style="fill:#031C21"></rect><rect x="211.37" y="174.97" width="4.72" height="17.65" rx="1.6" transform="translate(397.52 -29.94) rotate(90)" style="fill:#fff;opacity:0.2"></rect><rect x="177.29" y="203.72" width="52.13" height="18.45" rx="3.77" style="fill:#031C21"></rect><rect x="211.37" y="204.13" width="4.72" height="17.65" rx="1.6" transform="translate(426.68 -0.78) rotate(90)" style="fill:#fff;opacity:0.2"></rect><rect x="162.69" y="232.89" width="52.13" height="18.45" rx="3.77" style="fill:#031C21"></rect><rect x="196.77" y="233.29" width="4.72" height="17.65" rx="1.6" transform="translate(441.24 42.98) rotate(90)" style="fill:#fff;opacity:0.2"></rect><rect x="177.29" y="262.05" width="52.13" height="18.45" rx="3.77" style="fill:#031C21"></rect><rect x="211.37" y="262.45" width="4.72" height="17.65" rx="1.6" transform="translate(485 57.54) rotate(90)" style="fill:#fff;opacity:0.2"></rect><rect x="177.29" y="291.21" width="52.13" height="18.45" rx="3.77" style="fill:#031C21"></rect><rect x="211.37" y="291.61" width="4.72" height="17.65" rx="1.6" transform="translate(514.16 86.7) rotate(90)" style="fill:#fff;opacity:0.2"></rect><rect x="177.29" y="320.37" width="52.13" height="18.45" rx="3.77" style="fill:#031C21"></rect><rect x="211.37" y="320.77" width="4.72" height="17.65" rx="1.6" transform="translate(543.32 115.86) rotate(90)" style="fill:#fff;opacity:0.2"></rect><rect x="177.29" y="349.53" width="52.13" height="18.45" rx="3.77" style="fill:#031C21"></rect><rect x="211.37" y="349.93" width="4.72" height="17.65" rx="1.6" transform="translate(572.48 145.03) rotate(90)" style="fill:#fff;opacity:0.2"></rect><rect x="177.29" y="378.69" width="52.13" height="18.45" rx="3.77" style="fill:#031C21"></rect><rect x="211.37" y="379.09" width="4.72" height="17.65" rx="1.6" transform="translate(601.65 174.19) rotate(90)" style="fill:#fff;opacity:0.2"></rect><circle cx="168.22" cy="183.79" r="2.98" style="fill:#031C21"></circle><circle cx="159.7" cy="183.79" r="2.98" style="fill:#031C21"></circle><circle cx="151.19" cy="183.79" r="2.98" style="fill:#031C21"></circle><circle cx="151.19" cy="183.79" r="2.98" style="fill:#fff;opacity:0.4"></circle><path d="M145.65,183.79a3,3,0,1,1-3-3A3,3,0,0,1,145.65,183.79Z" style="fill:#031C21"></path><circle cx="168.22" cy="212.95" r="2.98" style="fill:#031C21"></circle><circle cx="159.7" cy="212.95" r="2.98" style="fill:#031C21"></circle><circle cx="151.19" cy="212.95" r="2.98" style="fill:#031C21"></circle><path d="M145.65,213a3,3,0,1,1-3-3A3,3,0,0,1,145.65,213Z" style="fill:#031C21"></path><path d="M145.65,213a3,3,0,1,1-3-3A3,3,0,0,1,145.65,213Z" style="fill:#fff;opacity:0.4"></path><circle cx="153.62" cy="242.11" r="2.98" style="fill:#031C21"></circle><circle cx="153.62" cy="242.11" r="2.98" style="fill:#fff;opacity:0.4"></circle><circle cx="145.1" cy="242.11" r="2.98" style="fill:#031C21"></circle><circle cx="136.59" cy="242.11" r="2.98" style="fill:#031C21"></circle><circle cx="136.59" cy="242.11" r="2.98" style="fill:#fff;opacity:0.4"></circle><circle cx="128.07" cy="242.11" r="2.98" style="fill:#031C21"></circle><circle cx="168.22" cy="271.27" r="2.98" style="fill:#031C21"></circle><circle cx="168.22" cy="271.27" r="2.98" style="fill:#fff;opacity:0.4"></circle><circle cx="159.7" cy="271.27" r="2.98" style="fill:#031C21"></circle><circle cx="159.7" cy="271.27" r="2.98" style="fill:#fff;opacity:0.4"></circle><circle cx="151.19" cy="271.27" r="2.98" style="fill:#031C21"></circle><path d="M145.65,271.27a3,3,0,1,1-3-3A3,3,0,0,1,145.65,271.27Z" style="fill:#031C21"></path><circle cx="168.22" cy="300.43" r="2.98" style="fill:#031C21"></circle><circle cx="159.7" cy="300.43" r="2.98" style="fill:#031C21"></circle><circle cx="159.7" cy="300.43" r="2.98" style="fill:#fff;opacity:0.4"></circle><circle cx="151.19" cy="300.43" r="2.98" style="fill:#031C21"></circle><path d="M145.65,300.43a3,3,0,1,1-3-3A3,3,0,0,1,145.65,300.43Z" style="fill:#031C21"></path><circle cx="168.22" cy="329.59" r="2.98" style="fill:#031C21"></circle><circle cx="159.7" cy="329.59" r="2.98" style="fill:#031C21"></circle><circle cx="151.19" cy="329.59" r="2.98" style="fill:#031C21"></circle><circle cx="151.19" cy="329.59" r="2.98" style="fill:#fff;opacity:0.4"></circle><path d="M145.65,329.59a3,3,0,1,1-3-3A3,3,0,0,1,145.65,329.59Z" style="fill:#031C21"></path><path d="M145.65,329.59a3,3,0,1,1-3-3A3,3,0,0,1,145.65,329.59Z" style="fill:#fff;opacity:0.4"></path><path d="M171.2,358.76a3,3,0,1,1-3-3A3,3,0,0,1,171.2,358.76Z" style="fill:#031C21"></path><path d="M171.2,358.76a3,3,0,1,1-3-3A3,3,0,0,1,171.2,358.76Z" style="fill:#fff;opacity:0.4"></path><path d="M162.69,358.76a3,3,0,1,1-3-3A3,3,0,0,1,162.69,358.76Z" style="fill:#031C21"></path><path d="M154.17,358.76a3,3,0,1,1-3-3A3,3,0,0,1,154.17,358.76Z" style="fill:#031C21"></path><path d="M145.65,358.76a3,3,0,1,1-3-3A3,3,0,0,1,145.65,358.76Z" style="fill:#031C21"></path><circle cx="168.22" cy="387.92" r="2.98" style="fill:#031C21"></circle><circle cx="159.7" cy="387.92" r="2.98" style="fill:#031C21"></circle><circle cx="151.19" cy="387.92" r="2.98" style="fill:#031C21"></circle><circle cx="151.19" cy="387.92" r="2.98" style="fill:#fff;opacity:0.4"></circle><path d="M145.65,387.92a3,3,0,1,1-3-3A3,3,0,0,1,145.65,387.92Z" style="fill:#031C21"></path><path d="M133.74,183.79a6.46,6.46,0,1,1-6.45-6.46A6.46,6.46,0,0,1,133.74,183.79Z" style="fill:#031C21"></path><path d="M133.74,183.79a6.46,6.46,0,1,1-6.45-6.46A6.46,6.46,0,0,1,133.74,183.79Z" style="fill:#fff;opacity:0.4"></path><path d="M133.74,213a6.46,6.46,0,1,1-6.45-6.46A6.46,6.46,0,0,1,133.74,213Z" style="fill:#031C21"></path><path d="M133.74,213a6.46,6.46,0,1,1-6.45-6.46A6.46,6.46,0,0,1,133.74,213Z" style="fill:#fff;opacity:0.4"></path><path d="M119.14,242.11a6.46,6.46,0,1,1-6.45-6.46A6.46,6.46,0,0,1,119.14,242.11Z" style="fill:#031C21"></path><path d="M119.14,242.11a6.46,6.46,0,1,1-6.45-6.46A6.46,6.46,0,0,1,119.14,242.11Z" style="fill:#fff;opacity:0.4"></path><path d="M133.74,271.27a6.46,6.46,0,1,1-6.45-6.46A6.46,6.46,0,0,1,133.74,271.27Z" style="fill:#031C21"></path><path d="M133.74,271.27a6.46,6.46,0,1,1-6.45-6.46A6.46,6.46,0,0,1,133.74,271.27Z" style="fill:#fff;opacity:0.4"></path><path d="M133.74,300.43a6.46,6.46,0,1,1-6.45-6.45A6.46,6.46,0,0,1,133.74,300.43Z" style="fill:#031C21"></path><path d="M133.74,300.43a6.46,6.46,0,1,1-6.45-6.45A6.46,6.46,0,0,1,133.74,300.43Z" style="fill:#fff;opacity:0.4"></path><path d="M133.74,329.59a6.46,6.46,0,1,1-6.45-6.45A6.46,6.46,0,0,1,133.74,329.59Z" style="fill:#031C21"></path><path d="M133.74,329.59a6.46,6.46,0,1,1-6.45-6.45A6.46,6.46,0,0,1,133.74,329.59Z" style="fill:#fff;opacity:0.4"></path><path d="M133.74,358.76a6.46,6.46,0,1,1-6.45-6.46A6.45,6.45,0,0,1,133.74,358.76Z" style="fill:#031C21"></path><path d="M133.74,358.76a6.46,6.46,0,1,1-6.45-6.46A6.45,6.45,0,0,1,133.74,358.76Z" style="fill:#fff;opacity:0.4"></path><path d="M133.74,387.92a6.46,6.46,0,1,1-6.45-6.46A6.45,6.45,0,0,1,133.74,387.92Z" style="fill:#031C21"></path><path d="M133.74,387.92a6.46,6.46,0,1,1-6.45-6.46A6.45,6.45,0,0,1,133.74,387.92Z" style="fill:#fff;opacity:0.4"></path></g><g id="freepik--Cloud--inject-131"><path d="M222.55,145.48a16.63,16.63,0,0,0-8.19-11.55h0c0-.13,0-.26,0-.39a16.69,16.69,0,0,0-16.69-16.69h-6.4v1.27a16.74,16.74,0,0,0-9.23,9.6,10.25,10.25,0,0,0-1.66-.15,10,10,0,0,0-9.27,6.29,11.25,11.25,0,0,0-6.88.51,12.14,12.14,0,0,0-7.73,10.85,11.94,11.94,0,0,0,11.94,12.2h45.21a9.07,9.07,0,0,0,9.16-8.87v-.1A16.06,16.06,0,0,0,222.55,145.48Z" style="fill:#031C21"></path><path d="M216.16,145.48A16.63,16.63,0,0,0,208,133.93h0c0-.13,0-.26,0-.39a16.69,16.69,0,0,0-32.33-5.82,9.88,9.88,0,0,0-10.92,6.14,11.25,11.25,0,0,0-6.88.51,12.14,12.14,0,0,0-7.73,10.85,11.93,11.93,0,0,0,11.93,12.2h45.22a9.08,9.08,0,0,0,9.16-8.87v-.1A16.06,16.06,0,0,0,216.16,145.48Z" style="fill:#031C21"></path><path d="M216.16,145.48A16.63,16.63,0,0,0,208,133.93h0c0-.13,0-.26,0-.39a16.69,16.69,0,0,0-32.33-5.82,9.88,9.88,0,0,0-10.92,6.14,11.25,11.25,0,0,0-6.88.51,12.14,12.14,0,0,0-7.73,10.85,11.93,11.93,0,0,0,11.93,12.2h45.22a9.08,9.08,0,0,0,9.16-8.87v-.1A16.06,16.06,0,0,0,216.16,145.48Z" style="fill:#fff;opacity:0.30000000000000004"></path></g></svg>